<?xml version="1.0" encoding="utf-8"?>
<svg id="master-artboard" viewBox="0 0 1504.9998779296875 909.9999389648438" version="1.1" xmlns="http://www.w3.org/2000/svg" x="0px" y="0px" width="1504.9998779296875px" height="909.9999389648438px" enable-background="new 0 0 2800 2800"><rect id="ee-background" x="0" y="0" width="1504.9998779296875" height="909.9999389648438" style="fill: white; fill-opacity: 0; pointer-events: none;"/>



<path fill="#A7A9AC" d="M1590.6,1732.8c0,0,187.2,11.4,242.5,32.8l763.8,73.8H1404.1L1590.6,1732.8z" transform="matrix(1, 0, 0, 1, -1254.9999812990432, -1124.9999832361973)"/><path fill="#574841" stroke="#030301" stroke-width="13" stroke-linejoin="round" stroke-miterlimit="10" d="M1391.8,1787.2&#10;&#9;&#9;l-8.3,41.7l190.4-7l25.1-9.5l19.8,7.8l309.1-11.4c0,0,75.2,68.6,179.6,0l533.4,20.2v-54.3l-575.5-18L1391.8,1787.2z" transform="matrix(1, 0, 0, 1, -1254.9999812990432, -1124.9999832361973)"/><path fill="#BFA886" d="M2022.5,1804.8c0,0-236.3-51.6-520.1,0c-39.3,7.1-98.3,0-98.3,0s75.1-73.3,110.8-130.5&#10;&#9;&#9;&#9;c0,0,341.4-26.8,430.7,0C2035,1701.2,2022.5,1804.8,2022.5,1804.8z" transform="matrix(1, 0, 0, 1, -1254.9999812990432, -1124.9999832362012)"/><path fill="#030301" d="M2022.8,1805.3c-0.3,0-0.7,0.1-1,0l-0.7-0.1l-1.2-0.2l-2.4-0.4l-4.8-0.7l-9.6-1.4&#10;&#9;&#9;&#9;c-6.4-0.9-12.8-1.7-19.2-2.5c-12.8-1.6-25.7-3-38.5-4.3c-12.9-1.3-25.7-2.4-38.6-3.3c-6.4-0.5-12.9-0.9-19.3-1.4l-19.3-1.1&#10;&#9;&#9;&#9;l-19.3-1c-6.4-0.2-12.9-0.5-19.3-0.7l-19.4-0.5l-19.4-0.4c-25.8-0.3-51.6,0.1-77.4,0.8c-51.6,1.4-103.2,4.3-154.5,10.4&#10;&#9;&#9;&#9;c-3.2,0.3-6.4,0.8-9.6,1.2l-9.6,1.3l-9.6,1.3l-9.6,1.5l-19.2,3.1c-3.2,0.5-6.5,1-9.7,1.3l-4.9,0.5l-4.9,0.3c-13,0.9-26,0.9-39,0.5&#10;&#9;&#9;&#9;c-13-0.5-25.9-1.2-38.9-2.6c-1.2-0.1-2-1.2-1.9-2.4c0.1-0.5,0.3-1,0.6-1.3l0,0c5-5,10-10.2,14.9-15.4c2.5-2.6,4.9-5.2,7.3-7.8&#10;&#9;&#9;&#9;c2.4-2.6,4.8-5.2,7.2-7.9c9.6-10.6,19-21.3,28.1-32.2c9.1-10.9,18.1-22,26.6-33.4c8.5-11.4,16.7-22.9,24-34.9&#10;&#9;&#9;&#9;c0.8-1.4,2.2-2.2,3.7-2.3l0.1,0c24.8-2.2,49.6-4,74.5-5.6c24.8-1.7,49.7-3.1,74.6-4.3c49.7-2.5,99.6-3.8,149.4-3&#10;&#9;&#9;&#9;c6.2,0.1,12.5,0.2,18.7,0.4l9.4,0.3l9.4,0.4c12.5,0.5,25,1.4,37.4,2.4l9.4,0.9l4.7,0.5l4.7,0.6c3.1,0.4,6.2,0.8,9.4,1.3l9.3,1.6&#10;&#9;&#9;&#9;c6.2,1.2,12.4,2.4,18.6,4.3c6.2,1.7,12.2,4.1,18.1,6.8c11.7,5.4,22.4,13.2,31.3,22.5c1.1,1.2,2.1,2.4,3.2,3.6l1.6,1.8l1.5,1.9&#10;&#9;&#9;&#9;c1,1.3,2,2.5,2.9,3.9l2.6,4c0.9,1.3,1.6,2.8,2.5,4.1c0.8,1.4,1.6,2.8,2.3,4.2l2.1,4.3l1.9,4.4c2.4,5.9,4.4,11.9,5.9,18.1&#10;&#9;&#9;&#9;c1.5,6.1,2.6,12.3,3.4,18.6c0.7,6.2,1.1,12.5,1.1,18.8c0,3.1-0.1,6.3-0.3,9.4c-0.1,1.6-0.2,3.1-0.3,4.7l-0.2,2.3l-0.1,1.2&#10;&#9;&#9;&#9;l-0.1,0.6l0,0.3C2023.1,1804.9,2023,1805.2,2022.8,1805.3z M2022.1,1804.4c-0.1,0-0.2,0.1-0.2,0.1l0-0.3l0-0.6l0.1-1.2l0.1-2.3&#10;&#9;&#9;&#9;c0-1.5,0-3.1,0-4.6c-0.1-3.1-0.2-6.2-0.4-9.3c-0.4-6.2-1.1-12.3-2.2-18.3c-1.1-6.1-2.5-12-4.2-17.9c-1.8-5.8-4-11.5-6.6-17l-2-4.1&#10;&#9;&#9;&#9;l-2.2-4c-0.7-1.3-1.5-2.6-2.3-3.9c-0.8-1.3-1.6-2.6-2.5-3.8l-2.6-3.7c-0.9-1.2-1.9-2.3-2.8-3.5l-1.4-1.7l-1.5-1.6l-3.1-3.3&#10;&#9;&#9;&#9;c-8.6-8.3-18.6-15.1-29.6-19.7l-4.2-1.7l-2.1-0.8l-2.1-0.7c-2.9-0.9-5.7-1.9-8.6-2.5c-5.8-1.5-11.8-2.5-17.8-3.5&#10;&#9;&#9;&#9;c-12.1-1.9-24.4-2.8-36.6-3.7c-24.6-1.6-49.4-2-74.2-2.1c-49.6-0.1-99.2,1.4-148.8,3.1c-24.8,0.9-49.6,2-74.4,3.3&#10;&#9;&#9;&#9;c-12.4,0.6-24.8,1.3-37.2,2c-12.4,0.7-24.8,1.4-37.2,2.2l3.8-2.3c-8,12.2-16.6,23.7-25.6,34.9c-9,11.2-18.5,22-28.1,32.7&#10;&#9;&#9;&#9;c-9.6,10.6-19.5,21.1-29.4,31.3c-10,10.3-20.1,20.4-30.4,30.4l-1.2-3.7c12.7,1.5,25.7,2.6,38.5,3.1c12.9,0.5,25.8,0.6,38.6-0.3&#10;&#9;&#9;&#9;l4.8-0.4c1.6-0.2,3.2-0.3,4.8-0.5c3.2-0.3,6.3-0.9,9.5-1.4c6.4-1.1,12.7-2.3,19.1-3.5l9.6-1.7l9.6-1.6c6.4-1,12.8-2.2,19.2-3.2&#10;&#9;&#9;&#9;c25.6-4,51.4-7.5,77.2-10.2c25.8-2.7,51.8-4.6,77.7-5.6c26-1,52-1,77.9-0.4l19.5,0.6l19.5,0.9c6.5,0.3,13,0.8,19.4,1.2&#10;&#9;&#9;&#9;c6.5,0.4,13,0.9,19.4,1.4l19.4,1.8c6.5,0.7,12.9,1.3,19.4,2c6.5,0.7,12.9,1.5,19.3,2.3c6.4,0.8,12.9,1.7,19.3,2.6&#10;&#9;&#9;&#9;c12.8,1.9,25.6,4,38.4,6.3c6.4,1.2,12.7,2.4,19.1,3.8c3.2,0.7,6.3,1.4,9.5,2.1l4.7,1.1l2.4,0.6l1.2,0.3l0.3,0.1&#10;&#9;&#9;&#9;c0.1,0,0.2,0.1,0.2,0.1C2022,1804.1,2022,1804.2,2022.1,1804.4z" transform="matrix(1, 0, 0, 1, -1254.9999812990432, -1124.9999832362012)"/><path fill="#BFA886" d="M1466.7,1627.9c0,0,491.5,94.7,555.8,176.9c0,0,98.3-89.4-151.9-184.1c-250.2-94.7-238.3-82.8-238.3-82.8&#10;&#9;&#9;&#9;L1466.7,1627.9z" transform="matrix(1, 0, 0, 1, -1254.9999812990432, -1124.9999832362012)"/><path fill="#030301" d="M1467.3,1627.8c0.1-0.1,0-0.4-0.1-0.4c-0.1,0-0.1,0,0,0l0.1,0l0.6,0.1l1.1,0.2l2.3,0.3l4.5,0.7l9.1,1.5&#10;&#9;&#9;&#9;l18.1,3.1c12.1,2.1,24.1,4.3,36.2,6.6c12,2.3,24.1,4.6,36.1,7.1c12,2.5,24,5,36,7.5c12,2.6,24,5.3,35.9,8l17.9,4.1l17.9,4.3&#10;&#9;&#9;&#9;c23.8,5.8,47.7,11.7,71.3,18.3c47.3,13.1,94,28.4,140,45.6c11.5,4.4,22.9,8.7,34.3,13.4c5.7,2.4,11.3,4.7,17,7.2&#10;&#9;&#9;&#9;c2.8,1.2,5.6,2.5,8.4,3.7c2.8,1.2,5.6,2.6,8.4,3.9c11.1,5.3,22.1,10.8,32.7,17.2l3.9,2.5l2,1.2l1.9,1.3l3.8,2.6l3.7,2.8&#10;&#9;&#9;&#9;c4.9,3.8,9.6,8,13.7,13l-3.2-0.3c0.9-0.8,1.8-1.9,2.7-2.9c0.9-1,1.7-2.1,2.5-3.2c1.6-2.2,3.1-4.4,4.4-6.8&#10;&#9;&#9;&#9;c2.7-4.7,4.7-9.7,6.1-14.8c2.7-10.3,2.4-21.3-0.7-31.4c-3-10.2-8.6-19.5-15.3-27.9c-3.4-4.2-7.1-8.2-10.9-12&#10;&#9;&#9;&#9;c-3.9-3.8-8-7.4-12.2-10.8c-8.4-6.9-17.5-13.1-26.8-18.9c-9.3-5.8-18.9-11.2-28.7-16.2c-19.6-10.1-39.9-18.9-60.5-26.9&#10;&#9;&#9;&#9;c-5.2-2-10.3-3.9-15.5-5.9l-15.7-5.8l-31.3-11.6l-62.6-23.2c-20.9-7.7-41.8-15.4-62.7-22.9c-10.5-3.8-20.9-7.4-31.4-11&#10;&#9;&#9;&#9;c-5.2-1.8-10.5-3.5-15.8-5.1c-2.6-0.8-5.2-1.6-7.8-2.3c-1.3-0.3-2.6-0.7-3.8-0.9c-0.6-0.1-1.2-0.2-1.6-0.3c-0.2,0-0.4,0-0.3,0&#10;&#9;&#9;&#9;c0,0,0.2,0,0.2,0c0,0,0.2,0,0.3-0.1c0.1,0,0.3-0.1,0.6-0.2c0.2-0.1,0.7-0.3,1.2-0.7c0.5-0.4,1.3-1.2,1.7-2.6&#10;&#9;&#9;&#9;c0.3-1.3,0.1-2.5-0.2-3.2c-0.3-0.7-0.5-1-1-1.5l-1.2,8.1c-13.6,7.1-27.1,14.1-40.8,21.1c-13.7,6.9-27.4,13.9-41.4,20.9l-42.3,21.2&#10;&#9;&#9;&#9;C1496,1612.9,1481.7,1620.3,1467.3,1627.8z M1466.1,1628c13.2-7.4,26.5-15.1,39.9-22.8l40.5-23.7c13.6-8,27.5-16.1,41.4-24.1&#10;&#9;&#9;&#9;c13.9-8,28-15.9,42-23.9l-1.2,8.1c-0.6-0.6-0.8-1-1.2-1.7c-0.3-0.8-0.6-2-0.2-3.4c0.4-1.4,1.3-2.3,1.9-2.8&#10;&#9;&#9;&#9;c0.6-0.4,1.2-0.7,1.4-0.8c1.3-0.5,1.7-0.4,2.2-0.4c0.8,0,1.3,0,1.8,0.1c0.9,0.1,1.7,0.2,2.5,0.3c1.5,0.3,3,0.6,4.4,0.9&#10;&#9;&#9;&#9;c2.8,0.7,5.6,1.4,8.3,2.1c5.4,1.5,10.8,3.1,16.2,4.8c10.7,3.3,21.3,6.8,31.9,10.3c21.2,7.1,42.2,14.5,63.2,22.1&#10;&#9;&#9;&#9;c21,7.6,41.9,15.3,62.7,23.2l31.2,11.9l15.6,6c5.2,2,10.4,4.1,15.6,6.2c20.8,8.5,41.3,17.7,61.1,28.4&#10;&#9;&#9;&#9;c19.8,10.7,39.1,22.8,56.3,37.7c4.3,3.7,8.4,7.7,12.4,11.8c3.9,4.2,7.6,8.5,11.1,13.2c6.8,9.2,12.5,19.6,15.4,31&#10;&#9;&#9;&#9;c3,11.3,2.8,23.5-0.5,34.6c-1.7,5.6-4.1,10.9-7.1,15.8c-1.5,2.5-3.1,4.8-4.9,7.1c-1.8,2.3-3.6,4.4-5.9,6.5c-0.9,0.8-2.2,0.8-3-0.1&#10;&#9;&#9;&#9;c0,0-0.1-0.1-0.1-0.1l0,0c-3.6-4.6-8.1-8.7-12.7-12.5l-3.6-2.8l-3.7-2.6l-1.9-1.3l-1.9-1.2l-3.8-2.5c-10.3-6.4-21.2-12-32.2-17.1&#10;&#9;&#9;&#9;c-5.5-2.6-11.1-5-16.7-7.4c-2.8-1.2-5.6-2.4-8.5-3.5l-8.5-3.3c-11.4-4.4-22.9-8.5-34.5-12.3c-5.8-1.9-11.6-3.8-17.4-5.7&#10;&#9;&#9;&#9;c-5.8-1.8-11.7-3.6-17.5-5.4c-11.7-3.5-23.5-6.9-35.2-10.2c-11.8-3.3-23.6-6.5-35.4-9.7l-35.4-9.4c-23.6-6.2-47.3-12.5-71-18.5&#10;&#9;&#9;&#9;l-35.6-9c-11.9-3-23.8-5.9-35.6-8.8c-11.9-3-23.8-5.9-35.7-8.7l-35.7-8.6l-35.7-8.6l-17.9-4.3l-8.9-2.2l-4.5-1.1l-2.2-0.5&#10;&#9;&#9;&#9;l-1.1-0.3l-0.6-0.1l-0.1,0c0,0-0.1,0-0.3-0.1C1466.4,1628.4,1466.2,1628.2,1466.1,1628z" transform="matrix(1, 0, 0, 1, -1254.9999812990432, -1124.9999832362012)"/><path fill="#030301" d="M1534.6,1765.6c2.7-0.7,5.4-1.4,8.1-2.1l8.1-1.9c5.4-1.2,10.9-2.3,16.3-3.4c10.9-2.1,21.9-3.9,32.8-5.6&#10;&#9;&#9;&#9;c22-3.2,44.1-5.6,66.2-7.2c22.2-1.5,44.4-2.2,66.6-1.9c22.2,0.5,44.5,2.1,66.5,5.8c-22.2,1.2-44.3,2.3-66.3,3.6&#10;&#9;&#9;&#9;c-22,1.4-44,2.9-66,4.4c-22,1.6-44,3.2-66.1,4.6C1578.9,1763.5,1556.8,1764.8,1534.6,1765.6z" transform="matrix(1, 0, 0, 1, -1254.9999812990432, -1124.9999832362012)"/><path fill="#030301" d="M1661.3,1720.8c7-2,14.1-3.5,21.2-4.9c7.1-1.3,14.2-2.4,21.4-3.3c14.3-1.8,28.7-2.9,43.1-3.4&#10;&#9;&#9;&#9;c14.4-0.4,28.9-0.2,43.3,0.9c3.6,0.3,7.2,0.7,10.8,1.1c1.8,0.2,3.6,0.4,5.4,0.7l5.4,0.8c7.2,1.1,14.3,2.6,21.3,4.5&#10;&#9;&#9;&#9;c-14.5,1.1-28.8,1.7-43,2.4c-14.3,0.7-28.5,1.2-42.7,1.6c-14.2,0.5-28.5,0.7-42.8,0.8C1690.2,1722,1675.9,1721.9,1661.3,1720.8z" transform="matrix(1, 0, 0, 1, -1254.9999812990432, -1124.9999832362012)"/><path fill="#030301" d="M1681.1,1617.2c7.4,1.2,14.6,2.8,21.7,4.5c7.2,1.7,14.3,3.7,21.3,5.7c14.1,4.1,28,8.8,41.8,13.9&#10;&#9;&#9;&#9;c13.8,5.1,27.4,10.8,40.7,17c3.3,1.5,6.7,3.2,9.9,4.8c3.3,1.7,6.6,3.3,9.8,5.1c3.2,1.8,6.5,3.6,9.7,5.5c3.2,1.9,6.3,3.9,9.4,6&#10;&#9;&#9;&#9;c-14.4-3.7-28.4-8.1-42.3-12.6c-13.9-4.6-27.7-9.4-41.4-14.6c-13.7-5.1-27.3-10.5-40.8-16.3&#10;&#9;&#9;&#9;C1707.6,1630.4,1694.2,1624.3,1681.1,1617.2z" transform="matrix(1, 0, 0, 1, -1254.9999812990432, -1124.9999832362012)"/><path fill="#030301" d="M1570.3,1604.7c6.5-1,12.7-0.7,18.9,0c6.1,0.7,12.2,2,18.1,3.7c5.9,1.7,11.7,3.9,17.3,6.7&#10;&#9;&#9;&#9;c1.4,0.7,2.8,1.4,4.1,2.2c1.4,0.8,2.7,1.7,4,2.5c1.3,0.9,2.6,1.9,3.8,2.9c1.2,1,2.4,2.2,3.5,3.4c-1.7,0-3.3-0.2-4.8-0.4&#10;&#9;&#9;&#9;c-1.6-0.1-3.1-0.3-4.6-0.5c-1.5-0.2-3.1-0.4-4.6-0.6c-1.5-0.2-3-0.4-4.5-0.7c-6-1-11.8-2.5-17.6-4.1c-5.8-1.7-11.5-3.7-17.1-6.1&#10;&#9;&#9;&#9;C1581.2,1611.3,1575.7,1608.6,1570.3,1604.7z" transform="matrix(1, 0, 0, 1, -1254.9999812990432, -1124.9999832362012)"/><path fill="#A59074" d="M1590.6,1572.2c0,0,42.9-5.7,99.5,12.8c77.7,25.4,182.7,81.8,252.5,128.7c0,0-186.5-163.6-307.3-166.9&#10;&#9;&#9;L1590.6,1572.2z" transform="matrix(1, 0, 0, 1, -1254.9999812990432, -1124.9999832361973)"/><path fill="#BFA886" d="M1554.3,1486.7c0,0,407.5,176.9,468.2,318.1c0,0,67.9-71.5-35.7-159.1c-67.9-57.4-179.5-146.4-283.3-175.1&#10;&#9;&#9;&#9;C1648.9,1455.6,1593.7,1469.5,1554.3,1486.7z" transform="matrix(1, 0, 0, 1, -1254.9999812990432, -1124.9999832362012)"/><path fill="#030301" d="M1554.9,1486.7c0.1-0.1,0.1-0.4,0-0.4c-0.1,0,0,0,0.1,0l0.1,0.1l0.5,0.2l1,0.4l2.1,0.8l4.2,1.7l8.3,3.4&#10;&#9;&#9;&#9;l16.6,6.9c11,4.7,22,9.4,32.9,14.4c21.9,9.8,43.5,20.1,65,30.7c21.4,10.7,42.8,21.6,63.8,33.1c10.5,5.7,21,11.6,31.4,17.5&#10;&#9;&#9;&#9;c10.4,5.9,20.7,12.1,31,18.3c40.9,25.1,80.3,52.8,117.4,83.2c9.3,7.6,18.4,15.4,27.3,23.4c8.9,8.1,17.6,16.4,25.9,25.1&#10;&#9;&#9;&#9;c8.3,8.7,16.2,17.8,23.4,27.4c7.2,9.6,13.7,20,18.8,31.1l-3.9-0.7c1-1.2,2.1-2.5,3.1-3.9c0.5-0.7,1-1.4,1.5-2.1&#10;&#9;&#9;&#9;c0.5-0.7,1-1.4,1.4-2.1c1.8-2.9,3.5-5.8,5-8.9c3-6.1,5.3-12.5,6.8-19.1c1.5-6.6,2.3-13.3,2.2-20c-0.1-6.7-1-13.4-2.6-19.9&#10;&#9;&#9;&#9;c-3.2-13.1-9.3-25.3-16.8-36.5c-7.6-11.2-16.8-21.4-26.8-30.7c-1.2-1.2-2.5-2.4-3.8-3.5l-3.9-3.4l-3.9-3.4l-4-3.3&#10;&#9;&#9;&#9;c-5.4-4.5-10.8-8.9-16.2-13.3c-10.8-8.8-21.8-17.5-32.8-26c-11-8.5-22.1-16.9-33.4-25.1c-11.2-8.2-22.6-16.3-34.1-24.1&#10;&#9;&#9;&#9;c-23-15.7-46.5-30.6-70.8-43.9c-24.3-13.4-49.4-25.2-75.5-34.3c-13.1-4.6-26.2-8.1-39.8-10c-13.6-1.9-27.4-2.2-41.1-1.3&#10;&#9;&#9;&#9;c-1.7,0.1-3.4,0.2-5.2,0.4l-5.2,0.5c-3.4,0.4-6.8,0.9-10.3,1.4c-3.4,0.6-6.8,1.2-10.2,1.8c-3.4,0.8-6.8,1.4-10.2,2.2l-5.1,1.3&#10;&#9;&#9;&#9;c-1.7,0.4-3.4,0.9-5,1.3l-5,1.4c-1.7,0.5-3.3,1-5,1.6c-3.3,1-6.6,2.2-9.9,3.3l-2.4,0.8c-0.7,0.3-1.5,0.5-2.2,0.8&#10;&#9;&#9;&#9;C1558.2,1485.7,1556.5,1486.2,1554.9,1486.7z M1553.7,1486.7l4.9-2.6c0.9-0.4,1.7-0.9,2.6-1.3l2.4-1.1l4.8-2.1&#10;&#9;&#9;&#9;c1.6-0.7,3.3-1.3,4.9-2c1.6-0.6,3.3-1.3,4.9-1.9l5-1.8c3.3-1.2,6.7-2.2,10-3.3c3.4-1.1,6.8-1.9,10.2-2.9c3.4-0.8,6.9-1.7,10.3-2.5&#10;&#9;&#9;&#9;l5.2-1c1.7-0.3,3.5-0.7,5.2-0.9l5.3-0.8c1.8-0.3,3.5-0.5,5.3-0.7c14.1-1.7,28.4-1.9,42.7-0.6l5.3,0.5c1.8,0.2,3.5,0.5,5.3,0.8&#10;&#9;&#9;&#9;l5.3,0.9c1.8,0.3,3.5,0.8,5.3,1.1l5.3,1.2c1.7,0.4,3.4,0.9,5.2,1.4l5.1,1.4c1.7,0.5,3.4,1,5.1,1.6c13.6,4.2,26.9,9.2,39.9,14.8&#10;&#9;&#9;&#9;c13,5.6,25.8,11.7,38.3,18.3c25,13.2,49.1,28,72.3,43.9c11.6,7.9,23.1,16.2,34.3,24.6c11.3,8.4,22.4,17.1,33.4,25.8&#10;&#9;&#9;&#9;c11,8.8,21.8,17.7,32.6,26.7c5.4,4.5,10.7,9.1,16,13.6l4,3.4l4,3.6c2.6,2.4,5.4,4.7,7.9,7.3c10.2,10,19.8,20.9,27.5,33.1l2.9,4.6&#10;&#9;&#9;&#9;c0.9,1.6,1.7,3.2,2.6,4.8l1.3,2.4l0.6,1.2l0.6,1.2l2.2,5c2.7,6.7,5.1,13.6,6.5,20.8c1.4,7.2,2.1,14.5,1.9,21.7&#10;&#9;&#9;&#9;c-0.2,7.3-1.4,14.5-3.3,21.5c-1.9,7-4.7,13.7-8.1,20.1c-1.7,3.2-3.5,6.3-5.6,9.2c-0.5,0.7-1,1.5-1.6,2.2c-0.5,0.7-1.1,1.5-1.6,2.2&#10;&#9;&#9;&#9;c-1.1,1.4-2.2,2.8-3.6,4.2l0,0c-0.9,1-2.4,1-3.3,0.1c-0.2-0.2-0.4-0.5-0.6-0.8c-4.5-10.8-10.7-21-17.6-30.6&#10;&#9;&#9;&#9;c-6.9-9.6-14.7-18.6-22.9-27.3c-8.2-8.6-16.9-16.8-25.8-24.7c-9-7.8-18.3-15.3-27.7-22.6c-19-14.4-38.7-27.8-58.8-40.7&#10;&#9;&#9;&#9;c-20.1-12.8-40.5-25.1-61-37.3l-15.4-9.1l-7.7-4.5l-7.7-4.5c-10.3-6-20.7-11.9-31.1-17.7c-20.9-11.6-41.8-23.1-62.9-34.3&#10;&#9;&#9;&#9;c-21-11.3-42.3-22.3-63.5-33.2c-10.7-5.4-21.3-10.9-32-16.2l-16-8.1l-8-4l-4-2l-2-1l-1-0.5l-0.5-0.2l-0.3-0.2&#10;&#9;&#9;&#9;C1553.9,1487.2,1553.7,1486.9,1553.7,1486.7z" transform="matrix(1, 0, 0, 1, -1254.9999812990432, -1124.9999832362012)"/><path fill="#030301" d="M1708,1528c11.1,3.1,21.5,7.4,31.8,12.1c10.2,4.7,20.2,10,29.9,15.8c9.7,5.7,19.1,12,28.1,18.9&#10;&#9;&#9;&#9;c1.1,0.9,2.2,1.8,3.3,2.6c1.1,0.9,2.2,1.7,3.3,2.7c2.2,1.9,4.3,3.7,6.4,5.7c2.1,2,4.1,4,6.1,6.1c1.9,2.1,3.8,4.4,5.5,6.6&#10;&#9;&#9;&#9;c-2.6-1.3-5.1-2.6-7.5-4c-2.5-1.3-5-2.6-7.4-3.9c-2.5-1.3-5-2.6-7.4-3.9c-2.4-1.3-4.9-2.6-7.4-4c-9.8-5.3-19.5-10.8-29.1-16.5&#10;&#9;&#9;&#9;c-9.6-5.7-19-11.6-28.4-17.9C1725.9,1541.9,1716.7,1535.4,1708,1528z" transform="matrix(1, 0, 0, 1, -1254.9999812990432, -1124.9999832362012)"/><path fill="#A59074" d="M1618.8,1484.8c0,0,223.2,87,329.3,186.4c0,0-161.6-175.4-280.3-198L1618.8,1484.8z" transform="matrix(1, 0, 0, 1, -1254.9999812990432, -1124.9999832361973)"/><path fill="#BFA886" d="M2036.8,1792.3C1979.6,1499.2,1724,1417,1724,1417l-130.5,14.3C1593.6,1431.3,1926,1554.6,2036.8,1792.3z" transform="matrix(1, 0, 0, 1, -1254.9999812990432, -1124.9999832362012)"/><path fill="#030301" d="M2036.6,1791.8c-0.7-2.7-1.6-5.3-2.3-7.6c-0.4-1.2-0.7-2.3-1-3.5l-0.5-1.8l-0.5-1.9l-2.1-7.7l-1.1-3.8&#10;&#9;&#9;&#9;l-1.1-3.8l-2.3-7.6c-0.8-2.5-1.6-5.1-2.4-7.6c-0.8-2.5-1.6-5.1-2.5-7.5l-2.6-7.5c-0.8-2.5-1.7-5-2.7-7.5l-2.7-7.4l-2.9-7.4&#10;&#9;&#9;&#9;c-1-2.5-1.9-4.9-3-7.3l-3.1-7.3c-1-2.4-2.1-4.8-3.2-7.2c-2.1-4.8-4.4-9.6-6.7-14.3c-9.3-18.9-19.5-37.4-31.1-55&#10;&#9;&#9;&#9;c-5.7-8.9-11.7-17.5-17.9-26c-6.2-8.5-12.8-16.7-19.6-24.8c-27-32.2-57.5-61.7-91.2-87.2c-16.9-12.7-34.6-24.5-53-34.8&#10;&#9;&#9;&#9;c-4.6-2.6-9.3-5.1-14-7.5c-4.7-2.4-9.5-4.8-14.3-7c-9.6-4.4-19.4-8.6-29.3-11.9l0.8,0.1l-16.3,1.9l-16.3,2&#10;&#9;&#9;&#9;c-10.9,1.3-21.7,2.7-32.6,4l-32.5,4.2l-32.5,4.3l0.9-7.5c5.8,2.1,11.5,4.2,17.2,6.5c5.7,2.2,11.4,4.5,17,6.9&#10;&#9;&#9;&#9;c11.3,4.7,22.5,9.7,33.5,14.8c22.2,10.3,44,21.4,65.4,33.1c21.5,11.7,42.5,24.2,63.2,37.3c20.6,13.2,40.7,27.2,60.2,42.1&#10;&#9;&#9;&#9;c9.7,7.4,19.3,15.1,28.7,23c9.4,7.9,18.6,16,27.6,24.3c9,8.3,17.8,16.9,26.3,25.7c8.5,8.8,16.8,17.9,24.8,27.1&#10;&#9;&#9;&#9;c8,9.3,15.6,18.9,23.1,28.6c7.4,9.8,14.3,19.9,21,30.1c6.6,10.3,12.8,20.9,18.6,31.6c2.8,5.4,5.6,10.8,8.2,16.4&#10;&#9;&#9;&#9;c1.3,2.7,2.7,5.6,3.7,8.1c0.5,1.3,0.9,2.6,1.4,4C2035.4,1788.9,2036,1790.3,2036.6,1791.8z M2037,1792.9c-0.7-1.3-1.5-2.6-2.3-3.9&#10;&#9;&#9;&#9;c-0.8-1.3-1.7-2.7-2.5-4.2c-1.7-3-3.1-5.5-4.6-8.2c-2.9-5.3-6.1-10.5-9.2-15.7c-6.4-10.3-13.1-20.4-20.2-30.2&#10;&#9;&#9;&#9;c-7.1-9.8-14.5-19.4-22.2-28.7c-7.7-9.3-15.7-18.4-23.9-27.3c-16.4-17.7-33.8-34.5-51.9-50.5c-9.1-8-18.3-15.7-27.7-23.4&#10;&#9;&#9;&#9;c-9.4-7.6-19-15-28.6-22.3c-4.9-3.6-9.7-7.2-14.6-10.7c-2.4-1.8-4.9-3.5-7.4-5.3c-2.5-1.7-4.9-3.5-7.4-5.2&#10;&#9;&#9;&#9;c-9.9-6.9-19.9-13.7-30.1-20.3c-20.2-13.3-40.9-25.8-62-37.8c-21-12-42.5-23.3-64.2-34.1c-10.9-5.3-21.8-10.6-32.8-15.7&#10;&#9;&#9;&#9;c-11-5-22.1-10.1-33.2-14.6l-0.2-0.1c-2-0.8-2.9-3.1-2.1-5c0.6-1.4,1.8-2.3,3.2-2.4l32.7-2.9l32.7-2.9c10.9-1,21.8-2,32.7-3.1&#10;&#9;&#9;&#9;l16.3-1.6l16.3-1.7l0,0c0.3,0,0.5,0,0.7,0.1c5.1,1.8,10.1,3.7,15,5.8c4.9,2.1,9.8,4.2,14.7,6.4c9.7,4.4,19.3,9.2,28.7,14.2&#10;&#9;&#9;&#9;c18.9,10,37.2,21,54.9,33.1c17.7,12.1,34.7,25.2,50.7,39.5l6,5.4c2,1.8,3.9,3.7,5.9,5.5c2,1.8,3.9,3.7,5.8,5.6&#10;&#9;&#9;&#9;c1.9,1.9,3.8,3.8,5.7,5.7c7.5,7.7,14.7,15.7,21.6,23.9c6.9,8.2,13.5,16.7,19.8,25.5c6.3,8.7,12.4,17.6,18,26.7&#10;&#9;&#9;&#9;c2.9,4.5,5.5,9.2,8.3,13.8c2.6,4.7,5.3,9.3,7.8,14.1c5.1,9.4,9.8,19.1,14.1,28.9c2.1,4.9,4.3,9.8,6.3,14.8c1,2.5,2,5,3,7.5&#10;&#9;&#9;&#9;l2.8,7.5c1,2.5,1.8,5,2.7,7.6l2.6,7.6l2.4,7.7c0.8,2.6,1.6,5.1,2.3,7.7l2.2,7.7c0.7,2.6,1.3,5.2,2,7.8c0.6,2.6,1.3,5.2,1.9,7.8&#10;&#9;&#9;&#9;l1.8,7.8l0.9,3.9l0.8,3.9l1.5,7.9l0.4,2l0.3,2.1c0.2,1.4,0.4,2.9,0.6,4.3C2036.4,1787.8,2036.6,1790.4,2037,1792.9z" transform="matrix(1, 0, 0, 1, -1254.9999812990432, -1124.9999832362012)"/><path fill="#030301" d="M1799.3,1274.1c9.1,7.6,17.6,16,25.8,24.6c8.2,8.6,16.1,17.5,23.7,26.7c1.9,2.3,3.8,4.6,5.7,6.9l5.6,7&#10;&#9;&#9;&#9;c3.6,4.7,7.3,9.4,10.9,14.2c7.1,9.6,13.9,19.3,20.6,29.2c6.7,9.9,13.1,19.9,19.2,30.1c3,5.1,6.1,10.2,9.1,15.4l8.8,15.6&#10;&#9;&#9;&#9;c5.6,10.5,11.2,21,16.5,31.7l4,8c1.3,2.7,2.5,5.4,3.8,8.1c2.5,5.4,5.1,10.8,7.5,16.2c9.7,21.8,18.5,43.9,26.6,66.3&#10;&#9;&#9;&#9;c7.9,22.5,15.4,45.1,21.5,68.1c12.8,45.8,22.4,92.5,28.3,139.6c-10.8-46.2-22.9-92-37.2-137c-3.5-11.3-7.4-22.4-11.2-33.6&#10;&#9;&#9;&#9;c-1.8-5.6-4-11.1-6-16.7l-3-8.3c-1-2.8-2-5.6-3.1-8.3c-4.3-11-8.4-22-13-32.9l-3.4-8.2l-1.7-4.1l-1.8-4l-7.1-16.2&#10;&#9;&#9;&#9;c-2.4-5.4-4.9-10.7-7.3-16.1c-1.2-2.7-2.4-5.4-3.7-8l-3.9-7.9l-3.8-8c-0.6-1.3-1.3-2.7-1.9-4l-2-3.9l-8.1-15.7&#10;&#9;&#9;&#9;c-10.9-20.9-22.6-41.3-34.9-61.5l-2.3-3.8l-2.4-3.7l-4.8-7.5c-1.6-2.5-3.2-5-4.8-7.4l-4.9-7.4c-3.3-4.9-6.6-9.8-10-14.6&#10;&#9;&#9;&#9;c-3.4-4.8-6.8-9.6-10.3-14.4c-6.9-9.6-14.2-18.9-21.6-28.1c-1.8-2.3-3.7-4.6-5.6-6.8c-1.9-2.3-3.8-4.5-5.8-6.7&#10;&#9;&#9;&#9;C1807.4,1282.7,1803.4,1278.3,1799.3,1274.1z" transform="matrix(1, 0, 0, 1, -1254.9999812990432, -1124.9999832362012)"/><path fill="#030301" d="M1918.6,1234.5c5.2,10.2,9.8,20.6,14.2,31.1c4.4,10.5,8.5,21.1,12.3,31.8c3.9,10.7,7.5,21.5,10.9,32.3&#10;&#9;&#9;&#9;c1.7,5.4,3.4,10.9,5,16.3c1.6,5.5,3,11,4.4,16.5c5.5,22.1,9.5,44.5,14.6,66.6c2.6,11,5.2,22.1,8,33.1c1.3,5.5,2.8,11,4.2,16.5&#10;&#9;&#9;&#9;l4.2,16.5l2.1,8.3l2,8.3c1.3,5.5,2.7,11,3.9,16.6c1.3,5.5,2.4,11.1,3.5,16.7c1.1,5.6,2.1,11.2,3.2,16.8&#10;&#9;&#9;&#9;c4.1,22.4,7.8,44.8,10.2,67.5c2.5,22.6,3.9,45.4,4.4,68.1c0.1,5.7,0.2,11.4,0.2,17.1c0,5.7-0.2,11.4-0.3,17.1&#10;&#9;&#9;&#9;c-0.1,2.8-0.1,5.7-0.2,8.5l-0.5,8.5c-0.4,5.7-0.7,11.4-1.2,17l-1.2,0c-2.2-22.6-3.8-45.2-6.2-67.6c-0.5-5.6-1.2-11.2-1.8-16.8&#10;&#9;&#9;&#9;l-0.9-8.4c-0.3-2.8-0.6-5.6-0.9-8.4c-0.7-5.6-1.4-11.2-2-16.8l-0.5-4.2l-0.5-4.2l-1.1-8.4c-1.3-11.2-2.9-22.4-4.1-33.6&#10;&#9;&#9;&#9;c-0.7-5.6-1.5-11.2-2.2-16.8l-1.1-8.4l-1.2-8.4l-2.4-16.8c-0.8-5.6-1.8-11.2-2.5-16.8c-0.4-2.8-0.8-5.6-1.3-8.4l-1.2-8.4l-1.2-8.4&#10;&#9;&#9;&#9;l-1.3-8.4c-0.9-5.6-1.7-11.2-2.8-16.8c-1-5.6-2-11.1-3.2-16.7c-0.5-2.8-1.2-5.5-1.8-8.3c-0.6-2.8-1.2-5.5-1.9-8.3&#10;&#9;&#9;&#9;c-1.2-5.5-2.7-11-4.1-16.5c-5.8-21.9-13.5-43.3-20.4-64.8c-1.8-5.4-3.4-10.8-5.1-16.2c-1.7-5.4-3.3-10.8-4.9-16.2l-9.6-32.5&#10;&#9;&#9;&#9;c-6.4-21.7-12.7-43.4-18.7-65.3L1918.6,1234.5z" transform="matrix(1, 0, 0, 1, -1254.9999812990432, -1124.9999832362012)"/><path fill="#BFA886" d="M2022.5,1804.8c0,0,236.3-51.6,520.1,0c39.3,7.1,98.3,0,98.3,0s-75.1-73.3-110.8-130.5&#10;&#9;&#9;&#9;c0,0-341.4-26.8-430.7,0C2010,1701.2,2022.5,1804.8,2022.5,1804.8z" transform="matrix(1, 0, 0, 1, -1254.9999812990432, -1124.9999832362012)"/><path fill="#030301" d="M2022.8,1804.4c0.1-0.1,0.1-0.2,0.2-0.3c0,0,0.1,0,0.2-0.1l0.3-0.1l1.2-0.3l2.4-0.6l4.7-1.1&#10;&#9;&#9;&#9;c3.2-0.7,6.3-1.4,9.5-2.1c6.3-1.3,12.7-2.6,19.1-3.8c12.8-2.3,25.6-4.5,38.4-6.3c6.4-0.9,12.9-1.8,19.3-2.6&#10;&#9;&#9;&#9;c6.4-0.9,12.9-1.6,19.3-2.3c6.4-0.8,12.9-1.3,19.4-2l19.4-1.8c6.5-0.5,12.9-1,19.4-1.4c6.5-0.4,13-0.8,19.4-1.2l19.5-0.9l19.5-0.6&#10;&#9;&#9;&#9;c26-0.6,52-0.6,77.9,0.4c26,1,51.9,2.8,77.7,5.6c25.8,2.8,51.6,6.2,77.2,10.2c6.4,0.9,12.8,2.2,19.2,3.2l9.6,1.6l9.6,1.7&#10;&#9;&#9;&#9;c6.4,1.2,12.8,2.4,19.1,3.5c3.2,0.5,6.3,1.1,9.5,1.4c1.6,0.2,3.2,0.4,4.8,0.5l4.8,0.4c12.8,1,25.7,0.9,38.6,0.3&#10;&#9;&#9;&#9;c12.9-0.5,25.8-1.6,38.5-3.1l-1.2,3.7c-10.3-10-20.4-20.1-30.4-30.4c-10-10.3-19.8-20.7-29.4-31.3c-9.6-10.7-19-21.5-28.1-32.7&#10;&#9;&#9;&#9;c-9-11.2-17.7-22.8-25.6-34.9l3.8,2.3c-12.4-0.8-24.8-1.6-37.2-2.2c-12.4-0.7-24.8-1.4-37.2-2c-24.8-1.3-49.6-2.4-74.4-3.3&#10;&#9;&#9;&#9;c-49.6-1.7-99.2-3.2-148.8-3.1c-24.8,0.1-49.5,0.5-74.2,2.1c-12.3,1-24.6,1.9-36.6,3.7c-6,1-12,2-17.8,3.5c-3,0.6-5.8,1.7-8.6,2.5&#10;&#9;&#9;&#9;l-2.1,0.7l-2.1,0.8l-4.2,1.7c-11,4.6-21,11.4-29.6,19.7l-3.1,3.3l-1.5,1.6l-1.4,1.7c-0.9,1.2-1.9,2.3-2.8,3.5l-2.6,3.7&#10;&#9;&#9;&#9;c-0.9,1.2-1.7,2.5-2.5,3.8c-0.8,1.3-1.6,2.5-2.3,3.9l-2.2,4l-2,4.1c-2.5,5.5-4.8,11.2-6.6,17c-1.8,5.9-3.2,11.8-4.2,17.9&#10;&#9;&#9;&#9;c-1.1,6.1-1.8,12.2-2.2,18.3c-0.2,3.1-0.3,6.2-0.4,9.3c0,1.5,0,3.1,0,4.6l0.1,2.3l0.1,1.2l0,0.6l0,0.3&#10;&#9;&#9;&#9;C2023.1,1804.4,2023,1804.3,2022.8,1804.4z M2022.1,1805.3c-0.1-0.2-0.3-0.5-0.3-0.7l0-0.3l-0.1-0.6l-0.1-1.2l-0.2-2.3&#10;&#9;&#9;&#9;c-0.1-1.6-0.3-3.1-0.3-4.7c-0.2-3.1-0.3-6.3-0.3-9.4c0-6.3,0.4-12.5,1.1-18.8c0.7-6.2,1.9-12.5,3.4-18.6&#10;&#9;&#9;&#9;c1.5-6.1,3.5-12.2,5.9-18.1l1.9-4.4l2.1-4.3c0.7-1.4,1.5-2.8,2.3-4.2c0.8-1.4,1.5-2.8,2.5-4.1l2.6-4c0.9-1.3,1.9-2.6,2.9-3.9&#10;&#9;&#9;&#9;l1.5-1.9l1.6-1.8c1.1-1.2,2.1-2.4,3.2-3.6c8.9-9.3,19.6-17.1,31.3-22.5c5.9-2.7,11.9-5.1,18.1-6.8c6.2-1.8,12.4-3.1,18.6-4.3&#10;&#9;&#9;&#9;l9.3-1.6c3.1-0.5,6.2-0.8,9.4-1.3l4.7-0.6l4.7-0.5l9.4-0.9c12.5-1,25-1.9,37.4-2.4l9.4-0.4l9.4-0.3c6.2-0.2,12.5-0.3,18.7-0.4&#10;&#9;&#9;&#9;c49.9-0.8,99.7,0.5,149.4,3c24.9,1.2,49.7,2.7,74.6,4.3c24.8,1.6,49.6,3.5,74.5,5.6l0.1,0c1.6,0.1,3,1.1,3.7,2.3&#10;&#9;&#9;&#9;c7.3,12,15.5,23.5,24,34.9c8.5,11.4,17.5,22.4,26.6,33.4c9.1,10.9,18.6,21.6,28.1,32.2c2.4,2.6,4.8,5.3,7.2,7.9&#10;&#9;&#9;&#9;c2.4,2.6,4.9,5.2,7.3,7.8c4.9,5.2,9.8,10.3,14.9,15.4l0,0c0.8,0.8,0.8,2.2,0,3c-0.4,0.4-0.8,0.6-1.3,0.6&#10;&#9;&#9;&#9;c-13,1.4-25.9,2.1-38.9,2.6c-13,0.5-26,0.4-39-0.5l-4.9-0.3l-4.9-0.5c-3.3-0.3-6.5-0.8-9.7-1.3l-19.2-3.1l-9.6-1.5l-9.6-1.3&#10;&#9;&#9;&#9;l-9.6-1.3c-3.2-0.4-6.4-0.9-9.6-1.2c-51.3-6.1-103-9-154.5-10.4c-25.8-0.7-51.6-1.1-77.4-0.8l-19.4,0.4l-19.4,0.5&#10;&#9;&#9;&#9;c-6.4,0.2-12.9,0.5-19.3,0.7l-19.3,1l-19.3,1.1c-6.4,0.5-12.9,0.8-19.3,1.4c-12.9,1-25.7,2.1-38.6,3.3&#10;&#9;&#9;&#9;c-12.9,1.3-25.7,2.7-38.5,4.3c-6.4,0.8-12.8,1.6-19.2,2.5l-9.6,1.4l-4.8,0.7l-2.4,0.4l-1.2,0.2l-0.7,0.1&#10;&#9;&#9;&#9;C2022.8,1805.4,2022.4,1805.4,2022.1,1805.3z" transform="matrix(1, 0, 0, 1, -1254.9999812990432, -1124.9999832362012)"/><path fill="#030301" d="M2246.1,1274.5c-31.1,35.8-58.1,74.3-84.5,113.3c-13.4,19.4-27,38.8-38.5,59.5&#10;&#9;&#9;&#9;c-11.5,20.7-21.3,42.3-30,64.3l-6.3,16.6l-1.6,4.1l-1.5,4.2l-3,8.3c-4.2,11-8,22.2-12,33.3c-1,2.8-1.9,5.6-2.8,8.4l-2.8,8.4&#10;&#9;&#9;&#9;c-1.8,5.6-3.8,11.2-5.5,16.8c-1.7,5.6-3.5,11.3-5.3,16.9c-1.9,5.6-3.4,11.3-5.2,16.9l-5.2,16.9c-1.6,5.7-3.3,11.3-5,17l-2.5,8.5&#10;&#9;&#9;&#9;c-0.9,2.8-1.6,5.7-2.4,8.5l-4.8,17.1c-3.2,11.4-6,22.8-9.3,34.2c-3,11.5-5.9,22.9-9.1,34.4l-1.2-0.2c0.6-5.9,1.3-11.8,2-17.7&#10;&#9;&#9;&#9;c0.8-5.9,1.4-11.8,2.3-17.7l1.4-8.8l1.5-8.8c1-5.9,1.9-11.8,3.2-17.6c2.4-11.7,4.7-23.4,7.7-34.9c1.4-5.8,2.8-11.6,4.3-17.3&#10;&#9;&#9;&#9;c1.5-5.8,3.2-11.5,4.8-17.2c6.5-22.9,14.7-45.4,23.2-67.6c4.5-11,8.7-22.2,13.7-33c4.7-10.9,10.1-21.6,15.3-32.3l32.5-63.4&#10;&#9;&#9;&#9;c2.8-5.3,5.5-10.5,8.1-15.9l8.1-15.9c1.3-2.7,2.7-5.3,4.2-7.9l4.2-7.9c1.4-2.6,2.9-5.2,4.4-7.8c1.5-2.6,3-5.2,4.5-7.7&#10;&#9;&#9;&#9;c6.1-10.3,12.7-20.2,19.7-29.9c3.5-4.9,7.1-9.6,10.7-14.4l5.6-7l2.8-3.5l2.9-3.4c7.6-9.2,15.6-18.1,24-26.6&#10;&#9;&#9;&#9;c8.4-8.5,17.1-16.7,26.6-24L2246.1,1274.5z" transform="matrix(1, 0, 0, 1, -1254.9999812990432, -1124.9999832362012)"/><path fill="#030301" d="M2126.9,1234.7c-6.9,21.6-13.5,43.3-19.8,65c-6.4,21.7-12.4,43.5-18.2,65.4c-5.8,21.9-11.3,43.8-16.5,65.8&#10;&#9;&#9;&#9;c-2.6,11-5.1,22-7.6,33l-3.6,16.5c-1.2,5.5-2.3,11.1-3.5,16.6l-1.7,8.3l-1.6,8.3c-1.1,5.5-2.2,11.1-3.2,16.6l-3.1,16.6&#10;&#9;&#9;&#9;c-1,5.6-1.9,11.1-2.9,16.7l-1.5,8.3l-1.3,8.4l-2.7,16.7c-1.6,11.2-3.4,22.3-4.8,33.5c-6.2,44.8-10.2,89.8-12.8,135.1&#10;&#9;&#9;&#9;c-2.4-45.3-0.9-90.9,3.5-136.2c0.6-5.7,1-11.3,1.7-17l2-16.9c0.7-5.6,1.5-11.3,2.3-16.9l1.2-8.4l1.3-8.4&#10;&#9;&#9;&#9;c0.9-5.6,1.7-11.2,2.7-16.8l2.9-16.8c1-5.6,2.1-11.2,3.2-16.8l1.6-8.4l1.7-8.4c1.2-5.6,2.3-11.1,3.6-16.7l3.7-16.6&#10;&#9;&#9;&#9;c1.3-5.5,2.7-11.1,4-16.6c1.3-5.5,2.7-11,4.1-16.5c5.7-22,11.8-43.9,18.5-65.6c6.7-21.7,13.9-43.2,21.6-64.6&#10;&#9;&#9;&#9;c3.9-10.7,7.9-21.3,12.1-31.8C2117.9,1255.6,2122.2,1245.1,2126.9,1234.7z" transform="matrix(1, 0, 0, 1, -1254.9999812990432, -1124.9999832362012)"/><path fill="#997A4B" d="M1822.7,1499.7c3.4,1.6,6.5,3.5,9.5,5.5c3,2,5.9,4.1,8.7,6.3c2.8,2.2,5.5,4.5,8.1,6.9&#10;&#9;&#9;&#9;c2.7,2.3,5.2,4.9,7.5,7.6c4.6,5.5,8.4,11.7,13.4,16.9c4.9,5.2,10.5,9.6,16.5,13.6c3,2,6,4,8.9,6.1c2.9,2.1,5.6,4.3,8.4,6.6&#10;&#9;&#9;&#9;c5.6,4.4,11.1,8.9,16.3,13.7c2.6,2.4,5.1,4.9,7.6,7.5c2.5,2.5,4.9,5.1,7.3,7.8c2.4,2.6,4.8,5.3,7,8.1c2.3,2.8,4.6,5.6,6.7,8.6&#10;&#9;&#9;&#9;l-0.7,0.9c-3.4-1.4-6.7-3.1-9.9-4.8c-3.2-1.8-6.2-3.7-9.3-5.7c-6-4-11.7-8.3-17.2-12.9c-5.5-4.6-10.4-9.8-15.4-14.9&#10;&#9;&#9;&#9;c-2.5-2.6-5-5.1-7.3-7.8c-2.3-2.7-4.5-5.6-6.8-8.4c-2.2-2.8-4.5-5.6-6.9-8.2c-2.4-2.6-5-5.1-7.7-7.4c-5.4-4.6-11.9-8.1-17.6-12.5&#10;&#9;&#9;&#9;c-2.8-2.2-5.5-4.6-8-7.1c-2.5-2.5-4.9-5.2-7.2-7.9c-2.3-2.7-4.6-5.5-6.7-8.5c-2.1-2.9-4.1-6-5.8-9.3L1822.7,1499.7z" transform="matrix(1, 0, 0, 1, -1254.9999812990432, -1124.9999832362012)"/><path fill="#030301" d="M2211.9,1756.8c7.3-3.4,14.8-6.2,22.2-8.9c7.5-2.7,15.1-5.2,22.7-7.5c15.2-4.6,30.6-8.6,46.2-11.9&#10;&#9;&#9;&#9;c15.6-3.3,31.3-5.9,47.2-7.6c2-0.2,4-0.4,6-0.6l3-0.3c1-0.1,2-0.1,3-0.2c4-0.2,8-0.4,12-0.5c4,0,8,0.1,12,0.2c4,0.3,8,0.7,12,1.2&#10;&#9;&#9;&#9;c-15.8,2.6-31.1,6-46.5,9.4l-46.2,10c-15.4,3.3-30.9,6.4-46.5,9.3C2243.5,1752.4,2227.9,1755.1,2211.9,1756.8z" transform="matrix(1, 0, 0, 1, -1254.9999812990432, -1124.9999832362012)"/><path fill="#030301" d="M2398.2,1748.1c5.7-1.4,11.5-2.3,17.2-3c5.8-0.7,11.5-1.3,17.3-1.6c11.5-0.7,23.1-0.8,34.6-0.3&#10;&#9;&#9;&#9;c11.5,0.5,23.1,1.7,34.5,3.6c1.4,0.2,2.9,0.5,4.3,0.8c1.4,0.3,2.9,0.5,4.3,0.9c2.8,0.7,5.7,1.4,8.5,2.1c2.8,0.9,5.6,1.8,8.4,2.7&#10;&#9;&#9;&#9;c2.8,1.1,5.4,2.3,8.1,3.5c-3,0-5.9-0.1-8.7-0.3c-2.9,0-5.8-0.1-8.6-0.2c-2.9,0-5.7,0-8.6-0.1c-2.8-0.1-5.7-0.1-8.5-0.1&#10;&#9;&#9;&#9;c-11.4-0.2-22.8-0.6-34.2-1.1c-11.4-0.5-22.8-1.3-34.2-2.3C2421.2,1751.7,2409.8,1750.4,2398.2,1748.1z" transform="matrix(1, 0, 0, 1, -1254.9999812990432, -1124.9999832362012)"/><path fill="#A59074" d="M2090.4,1765.6c0,0,219.3-60.8,300.4-65.3c81.1-4.5,144.6,3.6,144.6,3.6l-9.8-20.6l-123.3-8&#10;&#9;&#9;C2402.3,1675.3,2176.2,1715.6,2090.4,1765.6z" transform="matrix(1, 0, 0, 1, -1254.9999812990432, -1124.9999832361973)"/><path fill="#BFA886" d="M2578.3,1627.9c0,0-491.5,94.7-555.8,176.9c0,0-98.3-89.4,151.9-184.1c250.2-94.7,238.3-82.8,238.3-82.8&#10;&#9;&#9;&#9;L2578.3,1627.9z" transform="matrix(1, 0, 0, 1, -1254.9999812990432, -1124.9999832362012)"/><path fill="#030301" d="M2578.9,1628c-0.1,0.2-0.3,0.4-0.6,0.5c-0.2,0.1-0.3,0.1-0.3,0.1l-0.1,0l-0.6,0.1l-1.1,0.3l-2.2,0.5&#10;&#9;&#9;&#9;l-4.5,1.1l-8.9,2.2l-17.9,4.3l-35.7,8.6l-35.7,8.6c-11.9,2.9-23.8,5.8-35.7,8.7c-11.9,2.9-23.8,5.8-35.6,8.8l-35.6,9&#10;&#9;&#9;&#9;c-23.7,6-47.4,12.3-71,18.5l-35.4,9.4c-11.8,3.1-23.6,6.4-35.4,9.7c-11.8,3.3-23.5,6.6-35.2,10.2c-5.9,1.7-11.7,3.6-17.5,5.4&#10;&#9;&#9;&#9;c-5.8,1.9-11.6,3.7-17.4,5.7c-11.6,3.8-23.1,8-34.5,12.3l-8.5,3.3c-2.8,1.1-5.6,2.3-8.5,3.5c-5.6,2.4-11.2,4.8-16.7,7.4&#10;&#9;&#9;&#9;c-11.1,5.1-21.9,10.8-32.2,17.1l-3.8,2.5l-1.9,1.2l-1.9,1.3l-3.7,2.6l-3.6,2.8c-4.7,3.8-9.1,7.9-12.7,12.5l0,0&#10;&#9;&#9;&#9;c-0.7,0.9-2.1,1.1-3,0.4c-0.1,0-0.1-0.1-0.1-0.1c-2.2-2.1-4-4.2-5.9-6.5c-1.8-2.3-3.4-4.6-4.9-7.1c-3-4.9-5.4-10.2-7.1-15.8&#10;&#9;&#9;&#9;c-3.4-11.1-3.6-23.3-0.5-34.6c2.9-11.3,8.5-21.7,15.4-31c3.4-4.6,7.2-9,11.1-13.2c4-4.1,8.1-8.1,12.4-11.8&#10;&#9;&#9;&#9;c17.2-14.9,36.5-27,56.3-37.7c19.8-10.7,40.3-19.9,61.1-28.4c5.2-2.1,10.4-4.1,15.6-6.2l15.6-6l31.2-11.9&#10;&#9;&#9;&#9;c20.8-7.9,41.7-15.6,62.7-23.2c21-7.6,42-15,63.2-22.1c10.6-3.5,21.2-7,31.9-10.3c5.4-1.7,10.7-3.3,16.2-4.8&#10;&#9;&#9;&#9;c2.7-0.8,5.5-1.5,8.3-2.1c1.4-0.3,2.8-0.6,4.4-0.9c0.8-0.1,1.6-0.3,2.5-0.3c0.5,0,1-0.1,1.8-0.1c0.5,0.1,0.8,0,2.2,0.4&#10;&#9;&#9;&#9;c0.2,0.1,0.8,0.4,1.4,0.8c0.6,0.5,1.5,1.4,1.9,2.8c0.4,1.4,0.1,2.7-0.2,3.4c-0.3,0.7-0.6,1.1-1.2,1.7l-1.2-8.1&#10;&#9;&#9;&#9;c14,7.9,28.1,15.8,42,23.9c13.9,8,27.8,16.1,41.4,24.1l40.5,23.7C2552.4,1612.9,2565.7,1620.6,2578.9,1628z M2577.7,1627.8&#10;&#9;&#9;&#9;c-14.4-7.5-28.7-14.9-42.9-22.1l-42.3-21.2c-14-7-27.7-13.9-41.4-20.9c-13.7-6.9-27.2-14-40.8-21.1l-1.2-8.1&#10;&#9;&#9;&#9;c-0.5,0.6-0.7,0.9-1,1.5c-0.3,0.7-0.6,1.8-0.2,3.2c0.4,1.4,1.2,2.2,1.7,2.6c0.5,0.4,1,0.6,1.2,0.7c0.3,0.1,0.5,0.2,0.6,0.2&#10;&#9;&#9;&#9;c0.1,0,0.3,0.1,0.3,0.1c0.1,0,0.2,0,0.2,0c0.1,0-0.1,0-0.3,0c-0.4,0.1-1,0.2-1.6,0.3c-1.2,0.2-2.5,0.6-3.8,0.9&#10;&#9;&#9;&#9;c-2.6,0.7-5.2,1.5-7.8,2.3c-5.2,1.6-10.5,3.3-15.8,5.1c-10.5,3.5-21,7.2-31.4,11c-20.9,7.5-41.8,15.2-62.7,22.9l-62.6,23.2&#10;&#9;&#9;&#9;l-31.3,11.6l-15.7,5.8c-5.2,1.9-10.4,3.9-15.5,5.9c-20.6,8-40.9,16.8-60.5,26.9c-9.8,5-19.4,10.4-28.7,16.2&#10;&#9;&#9;&#9;c-9.3,5.8-18.3,12-26.8,18.9c-4.2,3.5-8.3,7-12.2,10.8c-3.9,3.8-7.5,7.8-10.9,12c-6.8,8.4-12.3,17.7-15.3,27.9&#10;&#9;&#9;&#9;c-3.1,10.1-3.4,21.1-0.7,31.4c1.4,5.1,3.4,10.1,6.1,14.8c1.3,2.3,2.8,4.6,4.4,6.8c0.8,1.1,1.6,2.1,2.5,3.2c0.9,1,1.8,2,2.7,2.9&#10;&#9;&#9;&#9;l-3.2,0.3c4-5,8.8-9.1,13.7-13l3.7-2.8l3.8-2.6l1.9-1.3l2-1.2l3.9-2.5c10.6-6.4,21.6-11.9,32.7-17.2c2.8-1.3,5.6-2.6,8.4-3.9&#10;&#9;&#9;&#9;c2.8-1.2,5.6-2.6,8.4-3.7c5.6-2.4,11.3-4.8,17-7.2c11.4-4.7,22.8-9.1,34.3-13.4c46-17.2,92.7-32.5,140-45.6&#10;&#9;&#9;&#9;c23.6-6.6,47.5-12.5,71.3-18.3l17.9-4.3l17.9-4.1c12-2.7,23.9-5.4,35.9-8c12-2.5,24-5,36-7.5c12-2.5,24.1-4.7,36.1-7.1&#10;&#9;&#9;&#9;c12-2.3,24.1-4.4,36.2-6.6l18.1-3.1l9.1-1.5l4.5-0.7l2.3-0.3l1.1-0.2l0.6-0.1l0.1,0c0.1,0,0.1,0,0,0&#10;&#9;&#9;&#9;C2577.7,1627.5,2577.6,1627.7,2577.7,1627.8z" transform="matrix(1, 0, 0, 1, -1254.9999812990432, -1124.9999832362012)"/><path fill="#030301" d="M2260.2,1648.5c11.5-7.2,23.4-13.2,35.4-18.9c12-5.7,24.2-10.9,36.6-15.7c12.4-4.8,24.9-9.3,37.5-13.3&#10;&#9;&#9;&#9;c12.7-4,25.5-7.6,38.8-10.1c-11.4,7.2-23.3,13.2-35.3,18.9c-12,5.7-24.3,10.9-36.6,15.7c-12.4,4.8-24.9,9.3-37.6,13.3&#10;&#9;&#9;&#9;C2286.3,1642.3,2273.4,1646,2260.2,1648.5z" transform="matrix(1, 0, 0, 1, -1254.9999812990432, -1124.9999832362012)"/><path fill="#030301" d="M2334.4,1662.5c9.5-6.2,19.6-11.1,29.9-15.6c10.3-4.4,20.7-8.3,31.4-11.6c10.7-3.3,21.6-6,32.7-7.9&#10;&#9;&#9;&#9;c1.4-0.2,2.8-0.4,4.2-0.6c1.4-0.2,2.8-0.4,4.2-0.6c2.8-0.3,5.6-0.5,8.5-0.8c2.8-0.1,5.7-0.1,8.5-0.1c2.8,0.1,5.7,0.4,8.5,0.8&#10;&#9;&#9;&#9;c-1.4,0.5-2.7,0.9-4.1,1.3l-2,0.6c-0.7,0.2-1.3,0.4-2,0.6c-2.6,0.9-5.3,1.7-7.9,2.6c-2.6,0.9-5.2,1.8-7.8,2.6&#10;&#9;&#9;&#9;c-2.6,0.9-5.2,1.8-7.8,2.7c-10.4,3.5-20.9,6.9-31.4,10.2c-10.5,3.2-21.2,6.3-31.9,9C2356.5,1658.4,2345.6,1661,2334.4,1662.5z" transform="matrix(1, 0, 0, 1, -1254.9999812990432, -1124.9999832362012)"/><path fill="#A59074" d="M2439.8,1564.5c0,0-245.2,83.4-361.5,170.8c0,0,208.7-161.8,330.2-187.8&#10;&#9;&#9;C2421,1547.9,2439.8,1564.5,2439.8,1564.5z" transform="matrix(1, 0, 0, 1, -1254.9999812990432, -1124.9999832361973)"/><path fill="#BFA886" d="M2490.7,1486.7c0,0-407.5,176.9-468.2,318.1c0,0-67.9-71.5,35.7-159.1S2376.4,1436.7,2490.7,1486.7z" transform="matrix(1, 0, 0, 1, -1254.9999812990432, -1124.9999832362012)"/><path fill="#030301" d="M2491.3,1486.7c-0.1,0.2-0.3,0.5-0.5,0.6l-0.3,0.2l-0.5,0.2l-1,0.5l-2,1l-4,2l-8,4l-16,8.1&#10;&#9;&#9;&#9;c-10.7,5.3-21.3,10.8-32,16.2c-21.3,10.9-42.5,21.9-63.5,33.2c-21.1,11.2-42,22.7-62.9,34.3c-10.4,5.8-20.8,11.8-31.1,17.7&#10;&#9;&#9;&#9;c-10.3,5.9-20.6,12-30.9,18c-10.3,6-20.5,12.2-30.7,18.3l-7.6,4.7l-7.6,4.7c-5.1,3.1-10.1,6.3-15.1,9.5&#10;&#9;&#9;&#9;c-20.1,12.8-39.9,26.2-58.8,40.7c-18.9,14.5-37.1,30-53.5,47.3c-2,2.2-4.1,4.3-6,6.6c-2,2.2-4,4.4-5.9,6.7&#10;&#9;&#9;&#9;c-1.9,2.3-3.8,4.5-5.6,6.9c-1.8,2.3-3.6,4.7-5.3,7.1c-6.9,9.6-13,19.8-17.5,30.6c-0.5,1.2-1.9,1.8-3.2,1.3&#10;&#9;&#9;&#9;c-0.3-0.1-0.6-0.3-0.8-0.6l0,0c-1.3-1.4-2.4-2.7-3.5-4.1c-0.6-0.7-1.1-1.4-1.6-2.1c-0.5-0.7-1-1.4-1.5-2.2c-2-2.9-3.9-5.9-5.5-9.1&#10;&#9;&#9;&#9;c-3.4-6.2-6.1-12.8-8.1-19.7c-2-6.9-3.1-14-3.4-21.2c-0.3-7.2,0.3-14.4,1.5-21.5l1.1-5.3c0.2-0.9,0.4-1.7,0.7-2.6l0.8-2.6l0.8-2.6&#10;&#9;&#9;&#9;c0.2-0.9,0.6-1.7,0.9-2.5l1.9-5c2.8-6.6,6-13,9.8-19c7.5-12.1,16.7-23,26.7-33l3.8-3.7c1.3-1.2,2.6-2.4,3.9-3.6l3.9-3.5l2-1.8&#10;&#9;&#9;&#9;l2-1.7c5.3-4.5,10.6-8.9,16.1-13.3c10.8-8.7,21.9-17.1,33.2-25.2c22.5-16.2,45.7-31.4,69.7-45.4c23.9-14,48.6-26.9,73.8-38.4&#10;&#9;&#9;&#9;c12.6-5.7,25.5-11.1,38.4-16.1c13-5,26.1-9.5,39.5-13.5c13.3-4,26.8-7.4,40.5-10.1c6.8-1.3,13.7-2.4,20.6-3.4&#10;&#9;&#9;&#9;c6.9-0.9,13.9-1.5,20.8-1.9c7-0.3,14-0.5,20.9-0.2c7,0.3,13.9,0.9,20.8,1.9c6.9,1,13.7,2.5,20.4,4.5l2.5,0.7&#10;&#9;&#9;&#9;c0.8,0.3,1.7,0.6,2.5,0.8c1.6,0.6,3.3,1.1,4.9,1.8l2.4,1l1.2,0.5l0.6,0.2l0.7,0.3C2488.1,1484.9,2489.8,1485.9,2491.3,1486.7z&#10;&#9;&#9;&#9; M2490.1,1486.7c-1.7-0.5-3.2-0.8-4.6-1.2l-0.5-0.2l-0.6-0.2l-1.2-0.4l-2.5-0.8c-1.6-0.5-3.3-0.9-4.9-1.4&#10;&#9;&#9;&#9;c-0.8-0.2-1.6-0.5-2.5-0.6l-2.5-0.5c-6.7-1.5-13.4-2.5-20.2-3c-6.8-0.6-13.6-0.8-20.4-0.6c-6.8,0.1-13.6,0.6-20.4,1.3&#10;&#9;&#9;&#9;c-6.8,0.7-13.5,1.7-20.2,2.9c-6.7,1.2-13.4,2.6-20,4.1c-6.6,1.6-13.2,3.3-19.8,5.2c-3.3,0.9-6.5,1.9-9.8,2.9c-3.2,1-6.5,2-9.7,3.2&#10;&#9;&#9;&#9;c-25.9,8.7-51.2,19.2-75.8,31.1c-24.7,11.8-48.8,24.8-72.4,38.7c-11.8,7-23.5,14.1-35,21.5c-11.6,7.3-23,14.9-34.2,22.8&#10;&#9;&#9;&#9;c-11.2,7.9-22.3,15.9-33.1,24.3c-5.4,4.2-10.8,8.4-16,12.8l-2,1.6l-1.9,1.7l-3.8,3.3c-1.3,1.1-2.6,2.2-3.8,3.3l-3.6,3.5&#10;&#9;&#9;&#9;c-9.8,9.3-18.6,19.4-26,30.5c-3.8,5.5-6.9,11.4-9.7,17.4c-2.6,6.1-4.9,12.3-6.4,18.7c-1.4,6.4-2.2,13-2.2,19.6&#10;&#9;&#9;&#9;c0,6.6,0.8,13.2,2.3,19.7c1.6,6.5,3.9,12.8,6.8,18.8c0.7,1.5,1.5,3,2.3,4.5c0.9,1.4,1.7,2.9,2.6,4.3c0.4,0.7,0.9,1.4,1.4,2.1&#10;&#9;&#9;&#9;c0.5,0.7,0.9,1.4,1.4,2c1,1.3,2,2.7,3,3.8l-4,0.7c5.1-11.1,11.6-21.4,18.8-31.1c7.3-9.6,15.1-18.8,23.5-27.4&#10;&#9;&#9;&#9;c1-1.1,2.1-2.2,3.1-3.2l3.2-3.2l3.2-3.2l3.2-3.1c2.2-2.1,4.3-4.2,6.5-6.2c2.2-2,4.4-4.1,6.6-6.1c8.9-8,18-15.9,27.3-23.4&#10;&#9;&#9;&#9;c37.2-30.4,76.5-58.1,117.4-83.2c10.2-6.3,20.5-12.4,30.9-18.4c10.4-5.9,20.9-11.8,31.4-17.5c21-11.5,42.4-22.5,63.8-33.2&#10;&#9;&#9;&#9;c21.5-10.6,43.1-20.9,65-30.7c10.9-4.9,21.9-9.7,32.9-14.4l16.6-6.9l8.3-3.4l4.2-1.7l2.1-0.8l1-0.4l0.5-0.2l0.1-0.1&#10;&#9;&#9;&#9;c0,0,0.1-0.1,0.1,0C2490.1,1486.4,2490,1486.6,2490.1,1486.7z" transform="matrix(1, 0, 0, 1, -1254.9999812990432, -1124.9999832362012)"/><path fill="#A59074" d="M2376.2,1500.3c0,0-214.2,107.1-310.8,215.9c0,0,141.9-192.1,260.9-212.7&#10;&#9;&#9;C2338.6,1501.3,2376.2,1500.3,2376.2,1500.3z" transform="matrix(1, 0, 0, 1, -1254.9999812990432, -1124.9999832361973)"/><path fill="#BFA886" d="M2008.2,1792.3C2065.4,1499.2,2321,1417,2321,1417l130.5,14.3C2451.4,1431.3,2119,1554.6,2008.2,1792.3z" transform="matrix(1, 0, 0, 1, -1254.9999812990432, -1124.9999832362012)"/><path fill="#030301" d="M2008,1792.9c0.4-2.5,0.6-5.1,0.9-8c0.2-1.4,0.4-2.9,0.6-4.3l0.3-2.1l0.4-2l1.5-7.9l0.8-3.9l0.9-3.9&#10;&#9;&#9;&#9;l1.8-7.8c0.6-2.6,1.3-5.2,1.9-7.8c0.7-2.6,1.3-5.2,2-7.8l2.2-7.7c0.7-2.6,1.5-5.1,2.3-7.7l2.4-7.7l2.6-7.6&#10;&#9;&#9;&#9;c0.9-2.5,1.7-5.1,2.7-7.6l2.8-7.5c1-2.5,2-5,3-7.5c2-5,4.2-9.9,6.3-14.8c4.4-9.8,9-19.5,14.1-28.9c2.5-4.8,5.2-9.4,7.8-14.1&#10;&#9;&#9;&#9;c2.8-4.6,5.4-9.3,8.3-13.8c5.7-9.1,11.7-18,18-26.7c6.3-8.7,12.9-17.2,19.8-25.5c6.9-8.3,14.1-16.2,21.6-23.9&#10;&#9;&#9;&#9;c1.9-1.9,3.8-3.8,5.7-5.7c1.9-1.9,3.8-3.8,5.8-5.6c2-1.8,3.9-3.7,5.9-5.5l6-5.4c16-14.3,33.1-27.4,50.7-39.5&#10;&#9;&#9;&#9;c17.7-12,36-23.1,54.9-33.1c9.5-5,19-9.7,28.7-14.2c4.9-2.2,9.8-4.3,14.7-6.4c4.9-2.1,9.9-4,15-5.8c0.2-0.1,0.5-0.1,0.7-0.1l0,0&#10;&#9;&#9;&#9;l16.3,1.7l16.3,1.6c10.9,1.1,21.8,2.1,32.7,3.1l32.7,2.9l32.7,2.9c2.1,0.2,3.7,2.1,3.5,4.2c-0.1,1.5-1.1,2.7-2.4,3.2l-0.2,0.1&#10;&#9;&#9;&#9;c-11.1,4.5-22.2,9.5-33.2,14.6c-11,5.1-21.9,10.3-32.8,15.7c-21.7,10.8-43.1,22.1-64.2,34.1c-21,12-41.7,24.5-62,37.8&#10;&#9;&#9;&#9;c-10.1,6.6-20.2,13.4-30.1,20.3c-2.5,1.7-4.9,3.5-7.4,5.2c-2.5,1.7-4.9,3.5-7.4,5.3c-4.9,3.5-9.8,7.1-14.6,10.7&#10;&#9;&#9;&#9;c-9.6,7.3-19.2,14.7-28.6,22.3c-9.4,7.6-18.6,15.4-27.7,23.4c-18.1,16-35.5,32.8-51.9,50.5c-8.2,8.9-16.2,18-23.9,27.3&#10;&#9;&#9;&#9;c-7.6,9.4-15.1,18.9-22.2,28.7c-7,9.9-13.8,19.9-20.2,30.2c-3.1,5.2-6.3,10.4-9.2,15.7c-1.5,2.7-2.9,5.2-4.6,8.2&#10;&#9;&#9;&#9;c-0.8,1.5-1.7,2.9-2.5,4.2C2009.5,1790.3,2008.7,1791.6,2008,1792.9z M2008.4,1791.8c0.6-1.4,1.2-2.9,1.7-4.3&#10;&#9;&#9;&#9;c0.5-1.4,0.9-2.7,1.4-4c0.9-2.5,2.4-5.3,3.7-8.1c2.6-5.5,5.4-10.9,8.2-16.4c5.8-10.7,12-21.3,18.6-31.6&#10;&#9;&#9;&#9;c6.7-10.3,13.6-20.4,21-30.1c7.4-9.7,15.1-19.4,23.1-28.6c8-9.2,16.3-18.3,24.8-27.1c8.5-8.8,17.3-17.3,26.3-25.7&#10;&#9;&#9;&#9;c9-8.3,18.2-16.5,27.6-24.3c9.4-7.8,19-15.5,28.7-23c19.5-14.9,39.6-28.9,60.2-42.1c20.6-13.2,41.7-25.6,63.2-37.3&#10;&#9;&#9;&#9;c21.5-11.7,43.3-22.8,65.4-33.1c11.1-5.2,22.3-10.1,33.5-14.8c5.6-2.4,11.3-4.7,17-6.9c5.7-2.2,11.4-4.4,17.2-6.5l0.9,7.5&#10;&#9;&#9;&#9;l-32.5-4.3l-32.5-4.2c-10.9-1.4-21.7-2.8-32.6-4l-16.3-2l-16.3-1.9l0.8-0.1c-9.9,3.4-19.8,7.5-29.3,11.9c-4.8,2.2-9.6,4.6-14.3,7&#10;&#9;&#9;&#9;c-4.7,2.4-9.4,4.9-14,7.5c-18.5,10.3-36.2,22.1-53,34.8c-33.7,25.5-64.2,55-91.2,87.2c-6.7,8.1-13.3,16.3-19.6,24.8&#10;&#9;&#9;&#9;c-6.3,8.5-12.3,17.1-17.9,26c-11.6,17.6-21.8,36.1-31.1,55c-2.3,4.8-4.6,9.5-6.7,14.3c-1.1,2.4-2.2,4.8-3.2,7.2l-3.1,7.3&#10;&#9;&#9;&#9;c-1.1,2.4-2,4.9-3,7.3l-2.9,7.4l-2.7,7.4c-0.9,2.5-1.8,5-2.7,7.5l-2.6,7.5c-0.9,2.5-1.6,5-2.5,7.5c-0.8,2.5-1.6,5-2.4,7.6&#10;&#9;&#9;&#9;l-2.3,7.6l-1.1,3.8l-1.1,3.8l-2.1,7.7l-0.5,1.9l-0.5,1.8c-0.3,1.2-0.7,2.3-1,3.5C2009.9,1786.5,2009.1,1789.1,2008.4,1791.8z" transform="matrix(1, 0, 0, 1, -1254.9999812990432, -1124.9999832362012)"/><path fill="#A59074" d="M2376.2,1433.1c0,0-214.2,107.1-310.8,215.9c0,0,144.8-189.6,261-222.9L2376.2,1433.1z" transform="matrix(1, 0, 0, 1, -1254.9999812990432, -1124.9999832361973)"/><path fill="#BFA886" d="M2240.7,1361.6c43-32.1,150.1,30.4,150.1,30.4c-282.4,128.7-390.2,373.6-390.2,373.6&#10;&#9;&#9;&#9;S2035,1515.3,2240.7,1361.6z" transform="matrix(1, 0, 0, 1, -1254.9999812990432, -1124.9999832362012)"/><path fill="#030301" d="M2240.4,1361.1c5.4-4.1,11.9-6.6,18.4-7.9c6.6-1.4,13.3-1.7,20-1.5c13.4,0.6,26.6,3.3,39.5,6.8&#10;&#9;&#9;&#9;c12.9,3.6,25.6,8,38,13c6.2,2.5,12.4,5.2,18.5,8c6.1,2.8,12.1,5.7,18.1,9c2,1.1,2.7,3.5,1.7,5.5c-0.4,0.8-1,1.4-1.8,1.7l-0.3,0.1&#10;&#9;&#9;&#9;c-40.9,20.3-80.5,42.9-118.7,67.8l-14.2,9.6l-7.1,4.8l-6.9,5l-13.9,10l-13.6,10.4c-18.1,14-35.7,28.6-52.3,44.3&#10;&#9;&#9;&#9;c-33.5,31.2-63.7,65.9-90.5,102.9c-13.4,18.5-26,37.6-37.7,57.2c-5.8,9.8-11.5,19.7-16.9,29.7l-4,7.5c-1.3,2.5-2.6,5-3.9,7.6&#10;&#9;&#9;&#9;c-1.3,2.5-2.5,5.1-3.7,7.6c-1.2,2.5-2.4,5.1-3.5,7.6c-1.2,2.7-4.3,3.9-7,2.7c-2.2-1-3.5-3.3-3.1-5.6l0,0c0.4-2.6,0.7-5.1,1.2-7.6&#10;&#9;&#9;&#9;c0.4-2.5,0.9-5,1.3-7.5c0.9-5,1.9-9.9,3-14.9c2.2-9.9,4.5-19.7,7.2-29.5c5.2-19.5,11.4-38.8,18.2-57.8&#10;&#9;&#9;&#9;c13.8-38,31.3-74.7,51.7-109.5c10.4-17.4,21.6-34.2,33.7-50.4c3-4,6.2-8,9.3-11.9l4.7-5.9l4.9-5.8l4.9-5.8&#10;&#9;&#9;&#9;c1.7-1.9,3.2-3.9,4.9-5.7l10.2-11.2c3.3-3.8,6.9-7.3,10.4-10.9l5.3-5.4c1.8-1.8,3.5-3.6,5.4-5.3c7.3-6.9,14.5-14,22.1-20.5&#10;&#9;&#9;&#9;C2208.7,1385.7,2224.5,1373.4,2240.4,1361.1z M2241.1,1362.1c-15.8,12.3-31.3,24.9-45.5,39.1c-7.3,6.8-14,14.3-20.9,21.5&#10;&#9;&#9;&#9;c-1.7,1.8-3.3,3.7-5,5.6l-4.9,5.7c-3.2,3.8-6.6,7.5-9.6,11.5l-9.3,11.7c-3.1,3.9-5.9,8-8.9,12l-4.5,6l-4.3,6.1l-8.5,12.3&#10;&#9;&#9;&#9;l-8.2,12.5l-2,3.1c-0.7,1-1.3,2.1-2,3.2l-3.9,6.3l-3.9,6.3c-0.7,1-1.3,2.1-1.9,3.2l-1.9,3.2l-7.5,12.9&#10;&#9;&#9;&#9;c-19.4,34.6-36.3,70.7-50.3,107.9c-1.8,4.6-3.4,9.3-5.1,14l-4.9,14.1c-1.5,4.7-3.1,9.4-4.5,14.2c-1.4,4.8-2.9,9.5-4.2,14.3&#10;&#9;&#9;&#9;c-2.8,9.5-5.3,19.2-7.6,28.8c-1.1,4.8-2.2,9.7-3.2,14.5c-0.5,2.4-1,4.8-1.4,7.3c-0.5,2.4-0.9,4.9-1.3,7.2l-10.2-2.9&#10;&#9;&#9;&#9;c1.3-2.8,2.6-5.3,3.9-7.9c1.3-2.6,2.7-5.2,4-7.7c1.4-2.6,2.8-5.1,4.1-7.6l4.3-7.5c5.8-10,11.9-19.8,18.2-29.5&#10;&#9;&#9;&#9;c12.7-19.3,26.2-37.9,40.4-56l5.3-6.8l5.4-6.7l5.5-6.7c1.8-2.2,3.7-4.4,5.6-6.6c7.3-8.9,15-17.4,22.6-26l11.6-12.7l11.9-12.5&#10;&#9;&#9;&#9;l3-3.1c1-1,2-2,3-3.1l6.1-6.1l6.1-6.1c2-2,4.1-4,6.2-6c32.8-32.2,67.7-62.5,105.4-89.2c37.9-26.4,78.4-49.1,120.9-67l-0.4,7.3&#10;&#9;&#9;&#9;c-5.5-3.4-11.3-6.6-17.1-9.8c-5.8-3.1-11.7-6.1-17.6-9c-11.9-5.7-24.1-10.9-36.6-15.1c-12.5-4.1-25.5-7.4-38.6-8.3&#10;&#9;&#9;&#9;c-6.6-0.5-13.2-0.2-19.7,1C2252.6,1355.7,2246.3,1358.2,2241.1,1362.1z" transform="matrix(1, 0, 0, 1, -1254.9999812990432, -1124.9999832362012)"/><path fill="#A59074" d="M1520.3,1679.7c0,0-10.3,21.4-26.4,41.1c0,0,152.4-32.2,264.1-15.2l-112.6-30.4L1520.3,1679.7z" transform="matrix(1, 0, 0, 1, -1254.9999812990432, -1124.9999832361973)"/><path fill="#997A4B" d="M2298.2,1751.8c4-2.1,8.2-3.7,12.3-5.2c4.2-1.4,8.4-2.7,12.6-3.8c2.1-0.6,4.2-1.1,6.4-1.6&#10;&#9;&#9;&#9;c2.1-0.5,4.3-0.9,6.4-1.3c2.1-0.4,4.3-0.8,6.5-1.1c2.2-0.3,4.3-0.5,6.5-0.6c4.4-0.3,8.8-0.3,13.2-0.3c4.4,0,8.8-0.1,13.1-0.4&#10;&#9;&#9;&#9;c4.4-0.3,8.7-0.9,13-1.7c4.3-0.7,8.6-1.7,12.9-2.7c8.6-2,17.2-3.7,26-4.6c4.4-0.5,8.7-1,13.1-1.4c4.4-0.3,8.8-0.5,13.2-0.6l3.3,0&#10;&#9;&#9;&#9;c1.1,0,2.2,0.1,3.3,0.1c2.2,0.1,4.4,0.2,6.6,0.4c2.2,0.1,4.4,0.3,6.6,0.5c2.2,0.2,4.4,0.6,6.6,0.9c2.2,0.3,4.4,0.7,6.6,1.1&#10;&#9;&#9;&#9;l3.3,0.6c1.1,0.2,2.2,0.5,3.3,0.8c4.3,1.1,8.6,2.3,12.8,3.8l-0.2,1.2c-4.5,0.6-8.8,0.9-13.2,1.2c-2.2,0.1-4.3,0.3-6.5,0.5&#10;&#9;&#9;&#9;c-2.2,0.2-4.3,0.3-6.5,0.4c-2.2,0.2-4.3,0.2-6.4,0.3c-2.2,0.2-4.3,0.3-6.4,0.5c-2.1,0.1-4.3,0.2-6.4,0.3c-1.1,0.1-2.1,0.1-3.2,0.1&#10;&#9;&#9;&#9;l-3.2,0.2c-4.3,0.2-8.6,0.3-12.9,0.3l-12.9,0.2c-4.3,0-8.6,0.2-13,0.2c-4.3,0-8.7-0.3-13.1-0.3c-4.4-0.1-8.7-0.1-13.1,0.1&#10;&#9;&#9;&#9;c-4.3,0.3-8.7,0.8-12.9,1.5c-4.3,0.7-8.5,1.9-12.7,3.1l-6.3,1.8c-2.1,0.6-4.2,1.2-6.3,1.7c-8.4,2.1-17.1,3-25.7,4&#10;&#9;&#9;&#9;c-4.3,0.4-8.7,0.8-13,0.9c-4.4,0.2-8.8,0.3-13.3,0L2298.2,1751.8z" transform="matrix(1, 0, 0, 1, -1254.9999812990432, -1124.9999832362012)"/><path fill="#997A4B" d="M1713.8,1640.8c3.5,0,6.8,0.4,10.1,0.9c3.3,0.5,6.5,1.2,9.7,2c3.2,0.8,6.3,1.7,9.4,2.8&#10;&#9;&#9;&#9;c3.1,1,6.2,2.2,9.1,3.7c5.9,3,11.3,7.1,17.3,9.8c6,2.7,12.3,4.5,18.8,5.7c3.3,0.7,6.5,1.3,9.7,2.1c3.2,0.8,6.3,1.8,9.5,2.8&#10;&#9;&#9;&#9;c6.3,2,12.5,3.9,18.6,6.5c3,1.3,6,2.7,8.9,4.2c2.9,1.5,5.8,3,8.7,4.7c5.7,3.3,11.3,7,16.5,11.4l-0.5,1.1c-3.4-0.3-6.7-0.9-10-1.6&#10;&#9;&#9;&#9;c-3.3-0.6-6.5-1.4-9.7-2.2c-6.4-1.6-12.6-3.6-18.7-5.8c-6.1-2.2-12-5-17.9-7.9c-3-1.4-5.9-2.7-8.8-4.3c-2.9-1.6-5.7-3.3-8.6-5&#10;&#9;&#9;&#9;c-5.7-3.4-11.6-6.3-17.8-8.2c-6.2-2-13-2.5-19.4-4c-3.2-0.8-6.3-1.8-9.3-3.1c-3-1.2-6-2.6-9-4c-2.9-1.5-5.8-3-8.7-4.8&#10;&#9;&#9;&#9;c-2.8-1.7-5.6-3.6-8.3-5.8L1713.8,1640.8z" transform="matrix(1, 0, 0, 1, -1254.9999812990432, -1124.9999832362012)"/><path fill="#997A4B" d="M1856.8,1614.9c1.6-0.2,2.9-0.1,4.2,0.1c1.3,0.2,2.4,0.5,3.5,1c1.1,0.4,2.1,1,3,1.6&#10;&#9;&#9;&#9;c0.9,0.6,1.7,1.3,2.3,2.4c1.2,2,1.7,4.9,3.2,6.6c1.4,1.7,3.5,2.6,6,3.2c1.2,0.3,2.4,0.5,3.5,0.9c1.1,0.4,2.1,0.9,3.1,1.4&#10;&#9;&#9;&#9;c2,1,4,2.1,5.6,3.6c0.8,0.8,1.5,1.6,2.2,2.5c0.7,0.9,1.3,1.9,1.9,2.9c1.1,2.1,2.1,4.4,2.5,7.4l-0.8,0.9c-3,0.2-5.4-0.3-7.7-1&#10;&#9;&#9;&#9;c-1.1-0.4-2.2-0.8-3.3-1.3c-1-0.5-2-1-2.9-1.7c-1.8-1.2-3.2-3-4.7-4.8c-0.7-0.9-1.4-1.7-2-2.7c-0.6-1-1.1-2.2-1.6-3.3&#10;&#9;&#9;&#9;c-1-2.3-2.3-4.2-4.3-5.2c-1.9-1.1-4.9-1-7.1-1.8c-1.1-0.4-2-1-2.8-1.8c-0.8-0.8-1.5-1.6-2.1-2.6c-0.6-1-1.2-2-1.6-3.2&#10;&#9;&#9;&#9;c-0.4-1.2-0.8-2.5-0.9-4.1L1856.8,1614.9z" transform="matrix(1, 0, 0, 1, -1254.9999812990432, -1124.9999832362012)"/><path fill="#997A4B" d="M2186.2,1679.2c1.9-1.8,3.8-3.1,5.8-4.4c2-1.2,4.1-2.3,6.1-3.3c2.1-1,4.2-1.8,6.4-2.5&#10;&#9;&#9;&#9;c2.1-0.7,4.3-1.3,6.6-1.6c4.6-0.5,9.5,0.1,13.9-0.8c4.5-0.9,8.7-2.7,12.7-5.1c2-1.2,4-2.4,6.1-3.4c2.1-1,4.2-1.9,6.3-2.7&#10;&#9;&#9;&#9;c4.2-1.7,8.4-3.5,12.8-4.6c2.2-0.6,4.4-1,6.7-1.4c2.2-0.4,4.5-0.7,6.8-0.9c2.3-0.2,4.6-0.4,7-0.4c2.4,0,4.7,0,7.2,0.3l0.4,1.1&#10;&#9;&#9;&#9;c-3.7,3.3-7.7,5.8-11.8,8c-4.1,2.2-8.3,4-12.6,5.5c-4.3,1.5-8.8,2.3-13.3,3.2c-2.2,0.4-4.5,0.9-6.8,1.1c-2.3,0.3-4.6,0.3-7,0.4&#10;&#9;&#9;&#9;c-4.7,0.2-9.2,0.9-13.5,2.5c-4.3,1.6-8.1,4.7-12.2,6.7c-2.1,1-4.2,1.7-6.5,2.2c-2.2,0.5-4.5,0.9-6.7,1.2c-2.3,0.3-4.6,0.5-7,0.5&#10;&#9;&#9;&#9;c-2.4,0-4.8-0.1-7.3-0.6L2186.2,1679.2z" transform="matrix(1, 0, 0, 1, -1254.9999812990432, -1124.9999832362012)"/><path fill="#CCB99E" d="M2234.7,1385.8c-5.3,2.9-6,7.8-10,13.2c-12.3,16.9-23.2,33.1-38,48.2c-20.2,20.6-40,39.3-57.2,62.5&#10;&#9;&#9;c-15.9,21.4-25.7,44.2-38.7,66.8c35.4-36.6,73.8-69.3,111.7-102.7c17-15,31-30.3,41.8-50.1c8.5-15.8,19.1-34.4,17.4-53&#10;&#9;&#9;C2244.5,1368.3,2241.2,1377.6,2234.7,1385.8z" transform="matrix(1, 0, 0, 1, -1254.9999812990432, -1124.9999832361973)"/><path fill="#030301" d="M2126.9,1530.5c8-10.3,16.9-19.6,26.1-28.6c9.2-9,18.7-17.5,28.6-25.8c9.9-8.2,20-16,30.6-23.4&#10;&#9;&#9;&#9;c5.3-3.7,10.7-7.2,16.2-10.5c2.8-1.6,5.6-3.3,8.4-4.8c2.9-1.5,5.8-3,8.8-4.3c-8.9,9.5-18.1,18.3-27.6,27&#10;&#9;&#9;&#9;c-9.4,8.7-19,17.1-28.9,25.2c-9.8,8.2-19.9,16.1-30.2,23.7C2148.8,1516.6,2138.2,1524,2126.9,1530.5z" transform="matrix(1, 0, 0, 1, -1254.9999812990432, -1124.9999832362012)"/><path fill="#997A4B" d="M2185.9,1463.8c0.6-2.2,1.5-4.2,2.5-6c1-1.8,2.2-3.5,3.4-5.1c1.2-1.6,2.5-3.1,4-4.5&#10;&#9;&#9;&#9;c1.4-1.4,2.9-2.7,4.7-3.8c3.5-2.1,7.8-3.3,11-5.6c1.6-1.1,3.1-2.5,4.5-4c1.4-1.5,2.6-3.1,3.7-4.8c1.2-1.7,2.3-3.4,3.6-5&#10;&#9;&#9;&#9;c1.3-1.6,2.7-3,4.1-4.4c2.9-2.8,5.7-5.7,9.1-8c1.7-1.1,3.4-2.2,5.3-3.1c1.8-0.9,3.7-1.8,5.6-2.6c2-0.7,4-1.4,6-1.9&#10;&#9;&#9;&#9;c2.1-0.5,4.3-0.8,6.5-0.9l0.6,1.1c-1.2,1.9-2.5,3.5-3.8,5.1c-1.3,1.6-2.6,3.1-4,4.5c-2.7,2.9-5.5,5.6-8.5,8.1&#10;&#9;&#9;&#9;c-3,2.4-6.3,4.5-9.7,6.6c-1.7,1.1-3.3,2.1-5.1,3.1c-1.8,0.9-3.7,1.7-5.5,2.6c-3.8,1.6-7.2,3.8-9.9,6.7c-2.7,2.9-4.4,6.9-6.8,10.1&#10;&#9;&#9;&#9;c-1.2,1.6-2.6,3-4.2,4.2c-1.5,1.2-3.1,2.4-4.8,3.5c-1.7,1.1-3.4,2.1-5.3,3c-1.9,0.9-3.8,1.7-6.1,2.2L2185.9,1463.8z" transform="matrix(1, 0, 0, 1, -1254.9999812990432, -1124.9999832362012)"/>


</svg>