<?xml version="1.0" encoding="utf-8"?>
<svg id="master-artboard" viewBox="0 0 989.9999389648438 1034.9998779296875" version="1.1" xmlns="http://www.w3.org/2000/svg" x="0px" y="0px" width="989.9999389648438px" height="1034.9998779296875px" enable-background="new 0 0 2800 2800"><rect id="ee-background" x="0" y="0" width="989.9999389648438" height="1034.9998779296875" style="fill: white; fill-opacity: 0; pointer-events: none;"/>






<path d="M 996.7000122070312 2651.5 L 311.8999938964844 2651.5 L 334.8999938964844 2579.39990234375 L 973.7000122070312 2579.39990234375 Z" fill="#A7A9AC" transform="matrix(1, 0, 0, 1, -154.99999769032001, -1809.9999730289019)"/><path fill="#574841" stroke="#030301" stroke-width="10.7568" stroke-linejoin="round" stroke-miterlimit="10" d="M520.9,2629.5&#10;&#9;&#9;&#9;h-181c-2.8,0-5-2.2-5-5v-429l4-10l-4-29.5v-153.3c0-2.8,2.2-5,5-5h181c2.8,0,5,2.2,5,5v621.8&#10;&#9;&#9;&#9;C525.9,2627.3,523.6,2629.5,520.9,2629.5z" transform="matrix(1, 0, 0, 1, -154.99999769032001, -1809.999973028906)"/><path fill="#413631" d="M513.9,2361.1c-2.2,16.2-3.2,32.5-4.2,48.3c-0.8,13.3-1.7,27.1-3.3,40.8c-2.3,20.1-5.7,50.4-23.8,61&#10;&#9;&#9;&#9;c-8.4,4.9-18.8,4.9-30.8-0.2c-3.6-1.5-6.7-3.8-9.4-5.9c-5.2-3.9-8.2-5.9-12.7-4.6c-6.9,2-9.4,11.4-12,21.4&#10;&#9;&#9;&#9;c-1.7,6.4-3.4,13-6.6,17.9c-5.2,8-11.9,10.7-18.3,13.4c-3.5,1.5-6.9,2.8-10.2,5.1c-9.8,6.7-15.6,15.9-20.5,24.9&#10;&#9;&#9;&#9;c-6,11-10,22.5-14.3,34.5c-0.7,1.9-1.4,3.8-2,5.8c17-2.2,33.4-1,47.4,0.6h123.2c2.1-3.9,3.5-10,4.2-17.9v-311.1&#10;&#9;&#9;&#9;c-0.3-1.9-0.6-3.7-0.9-5.4C518.9,2314.4,516.9,2338.4,513.9,2361.1z" transform="matrix(1, 0, 0, 1, -154.99999769032001, -1809.999973028906)"/><path fill="#131216" stroke="#030301" stroke-width="10.7568" stroke-linejoin="round" stroke-miterlimit="10" d="M647.5,2629.5&#10;&#9;&#9;&#9;H530.9c-2.8,0-5-2.2-5-5V2057c0-2.8,2.2-5,5-5h116.6c2.8,0,5,2.2,5,5v567.5C652.5,2627.3,650.3,2629.5,647.5,2629.5z" transform="matrix(1, 0, 0, 1, -154.99999769032001, -1809.999973028906)"/><path fill="#2F1110" stroke="#030301" stroke-width="10.7568" stroke-linejoin="round" stroke-miterlimit="10" d="M844.7,2629.5&#10;&#9;&#9;&#9;H664c-2.8,0-5.1-2.3-5.1-5.1v-659.1c0-2.8,2.3-5.1,5.1-5.1h102.9l13,9l13-9h51.8c2.8,0,5.1,2.3,5.1,5.1v659.1&#10;&#9;&#9;&#9;C849.9,2627.2,847.6,2629.5,844.7,2629.5z" transform="matrix(1, 0, 0, 1, -154.99999769032001, -1809.999973028906)"/><path fill="#2F2310" stroke="#030301" stroke-width="10.7568" stroke-linejoin="round" stroke-miterlimit="10" d="M971.5,2629.5&#10;&#9;&#9;&#9;H854.9c-2.8,0-5-2.2-5-5V2057c0-2.8,2.2-5,5-5h116.6c2.8,0,5,2.2,5,5v567.5C976.5,2627.3,974.2,2629.5,971.5,2629.5z" transform="matrix(1, 0, 0, 1, -154.99999769032001, -1809.999973028906)"/><path opacity="0.14" fill="#FFFFFF" d="M355.5,2024.6c1.1,38.1-4.4,77.1-4.5,115.7c0,13.9-1.1,65.5,13.5,69.3&#10;&#9;&#9;&#9;c15.2-21,10.3-51.3,10.5-76.1c0.1-21.4,3-42,3-63.6C378,2049.1,385.1,2023.1,355.5,2024.6z" transform="matrix(1, 0, 0, 1, -154.99999769032001, -1809.999973028906)"/><path d="M 334.899994 2111.899902 L 344.899994 2112.300049 L 355 2113 L 365 2111.899902 L 375.100006 2110.199951 L 385.100006 2110 L 395.200012 2111 L 405.200012 2111.100098 L 415.299988 2112.300049 L 425.299988 2111.899902 L 435.399994 2110.600098 L 445.399994 2111.600098 L 455.5 2111.5 L 465.5 2110.800049 L 475.600006 2112.100098 L 485.600006 2112.399902 L 495.700012 2111.899902 L 505.799988 2111.899902 L 515.799988 2112.899902 L 525.900024 2110.100098" fill="none" stroke="#030301" stroke-width="11.222" stroke-linejoin="round" stroke-miterlimit="10" transform="matrix(1, 0, 0, 1, -154.99999769032001, -1809.999973028906)"/><path d="M 334.899994 2247.100098 L 525.900024 2247.100098" fill="none" stroke="#030301" stroke-width="11.222" stroke-linejoin="round" stroke-miterlimit="10" transform="matrix(1, 0, 0, 1, -154.99999769032001, -1809.999973028906)"/><path d="M 334.899994 2381 L 344.899994 2383.199951 L 355 2381.100098 L 365 2381 L 375.100006 2381.399902 L 385.100006 2382.899902 L 395.200012 2382.899902 L 405.200012 2383.300049 L 415.299988 2383.899902 L 425.299988 2382.899902 L 435.399994 2381.199951 L 445.399994 2381 L 455.5 2382 L 465.5 2382.100098 L 475.600006 2383.300049 L 485.600006 2382.800049 L 495.700012 2381.600098 L 505.799988 2382.600098 L 515.799988 2382.5 L 525.900024 2381.800049" fill="none" stroke="#030301" stroke-width="11.222" stroke-linejoin="round" stroke-miterlimit="10" transform="matrix(1, 0, 0, 1, -154.99999769032001, -1809.999973028906)"/><path d="M 334.899994 2518.199951 L 344.899994 2517.600098 L 355 2516.199951 L 365 2519.699951 L 375.100006 2518.300049 L 385.100006 2517.199951 L 395.200012 2516.5 L 405.200012 2518.699951 L 415.299988 2516.600098 L 425.299988 2516.5 L 435.399994 2516.899902 L 445.399994 2518.399902 L 455.5 2518.399902 L 465.5 2518.800049 L 475.600006 2519.399902 L 485.600006 2518.300049 L 495.700012 2516.600098 L 505.799988 2516.5 L 515.799988 2517.5 L 525.900024 2517.600098" fill="none" stroke="#030301" stroke-width="11.222" stroke-linejoin="round" stroke-miterlimit="10" transform="matrix(1, 0, 0, 1, -154.99999769032001, -1809.999973028906)"/><path d="M 525.900024 2156 L 652.5 2156" fill="#574841" stroke="#030301" stroke-width="10.7568" stroke-linejoin="round" stroke-miterlimit="10" transform="matrix(1, 0, 0, 1, -154.99999769032001, -1809.999973028906)"/><path d="M 525.900024 2278.800049 L 536.400024 2280.600098 L 547 2279.699951 L 557.5 2280.199951 L 568.099976 2280.399902 L 578.599976 2280 L 589.200012 2279.600098 L 599.700012 2278.699951 L 610.299988 2281 L 620.799988 2280.100098 L 631.400024 2279.300049 L 641.900024 2278.899902 L 652.5 2280.300049" fill="#574841" transform="matrix(1, 0, 0, 1, -154.99999769032001, -1809.999973028906)"/><path d="M 525.900024 2278.800049 L 536.400024 2280.600098 L 547 2279.699951 L 557.5 2280.199951 L 568.099976 2280.399902 L 578.599976 2280 L 589.200012 2279.600098 L 599.700012 2278.699951 L 610.299988 2281 L 620.799988 2280.100098 L 631.400024 2279.300049 L 641.900024 2278.899902 L 652.5 2280.300049" fill="none" stroke="#030301" stroke-width="10.7568" stroke-linejoin="round" stroke-miterlimit="10" transform="matrix(1, 0, 0, 1, -154.99999769032001, -1809.999973028906)"/><path d="M 525.900024 2403.800049 L 652.5 2403.800049" fill="#574841" stroke="#030301" stroke-width="10.7568" stroke-linejoin="round" stroke-miterlimit="10" transform="matrix(1, 0, 0, 1, -154.99999769032001, -1809.999973028906)"/><path d="M 525.900024 2527.600098 L 652.5 2527.600098" fill="#574841" stroke="#030301" stroke-width="10.7568" stroke-linejoin="round" stroke-miterlimit="10" transform="matrix(1, 0, 0, 1, -154.99999769032001, -1809.999973028906)"/><path d="M 658.900024 2080.699951 L 849.900024 2080.699951" fill="none" stroke="#030301" stroke-width="11.222" stroke-linejoin="round" stroke-miterlimit="10" transform="matrix(1, 0, 0, 1, -154.99999769032001, -1809.999973028906)"/><path d="M 658.900024 2224.100098 L 668.900024 2225.399902 L 679 2223.399902 L 689 2223.600098 L 699.099976 2224 L 709.099976 2225.399902 L 719.200012 2222.600098 L 729.200012 2225.399902 L 739.299988 2224 L 749.299988 2224.699951 L 759.400024 2225 L 769.400024 2224.399902 L 779.5 2223.800049 L 789.5 2222.399902 L 799.599976 2225.899902 L 809.599976 2224.5 L 819.700012 2223.399902 L 829.700012 2222.699951 L 839.799988 2224.899902 L 849.900024 2222.800049" fill="none" stroke="#030301" stroke-width="11.222" stroke-linejoin="round" stroke-miterlimit="10" transform="matrix(1, 0, 0, 1, -154.99999769032001, -1809.999973028906)"/><path d="M 658.900024 2367.800049 L 849.900024 2367.800049" fill="none" stroke="#030301" stroke-width="11.222" stroke-linejoin="round" stroke-miterlimit="10" transform="matrix(1, 0, 0, 1, -154.99999769032001, -1809.999973028906)"/><path d="M 658.900024 2511.399902 L 849.900024 2511.399902" fill="none" stroke="#030301" stroke-width="11.222" stroke-linejoin="round" stroke-miterlimit="10" transform="matrix(1, 0, 0, 1, -154.99999769032001, -1809.999973028906)"/><path d="M 849.900024 2156 L 976.5 2156" fill="#574841" stroke="#030301" stroke-width="10.7568" stroke-linejoin="round" stroke-miterlimit="10" transform="matrix(1, 0, 0, 1, -154.99999769032001, -1809.999973028906)"/><path d="M 849.900024 2281 L 860.400024 2279.5 L 871 2279.5 L 881.5 2280.199951 L 892.099976 2279.399902 L 902.599976 2279.800049 L 913.200012 2280.699951 L 923.700012 2279.300049 L 934.299988 2279.399902 L 944.799988 2279.699951 L 955.400024 2280.699951 L 965.900024 2278.800049 L 976.5 2280.600098" fill="#574841" transform="matrix(1, 0, 0, 1, -154.99999769032001, -1809.999973028906)"/><path d="M 849.900024 2281 L 860.400024 2279.5 L 871 2279.5 L 881.5 2280.199951 L 892.099976 2279.399902 L 902.599976 2279.800049 L 913.200012 2280.699951 L 923.700012 2279.300049 L 934.299988 2279.399902 L 944.799988 2279.699951 L 955.400024 2280.699951 L 965.900024 2278.800049 L 976.5 2280.600098" fill="none" stroke="#030301" stroke-width="10.7568" stroke-linejoin="round" stroke-miterlimit="10" transform="matrix(1, 0, 0, 1, -154.99999769032001, -1809.999973028906)"/><path d="M 849.900024 2403.800049 L 976.5 2403.800049" fill="#574841" stroke="#030301" stroke-width="10.7568" stroke-linejoin="round" stroke-miterlimit="10" transform="matrix(1, 0, 0, 1, -154.99999769032001, -1809.999973028906)"/><path d="M 849.900024 2527.600098 L 860.400024 2527.5 L 871 2526.5 L 881.5 2528.300049 L 892.099976 2528.800049 L 902.599976 2528.699951 L 913.200012 2527.199951 L 923.700012 2527.199951 L 934.299988 2527.899902 L 944.799988 2527.199951 L 955.400024 2527.5 L 965.900024 2528.399902 L 976.5 2527.100098" fill="#574841" transform="matrix(1, 0, 0, 1, -154.99999769032001, -1809.999973028906)"/><path d="M 849.900024 2527.600098 L 860.400024 2527.5 L 871 2526.5 L 881.5 2528.300049 L 892.099976 2528.800049 L 902.599976 2528.699951 L 913.200012 2527.199951 L 923.700012 2527.199951 L 934.299988 2527.899902 L 944.799988 2527.199951 L 955.400024 2527.5 L 965.900024 2528.399902 L 976.5 2527.100098" fill="none" stroke="#030301" stroke-width="10.7568" stroke-linejoin="round" stroke-miterlimit="10" transform="matrix(1, 0, 0, 1, -154.99999769032001, -1809.999973028906)"/><path opacity="0.18" fill="#FFFFFF" d="M862.5,2092.1c0,30.7,1.4,61.5,1.5,92c18.9-25.1,18-32,11.9-59.2&#10;&#9;&#9;&#9;c-2.5-11.3,0.2-22.4-5.9-32.3c-0.8,0.8-2,1.9-3,2.4" transform="matrix(1, 0, 0, 1, -154.99999769032001, -1809.999973028906)"/><path d="M 754.4000244140625 2179.60009765625 L 695.4000244140625 2152.5 L 754.4000244140625 2125.39990234375 L 813.2999877929688 2152.5 Z" fill="#362A0D" transform="matrix(1, 0, 0, 1, -154.99999769032001, -1809.999973028906)"/><path d="M 754.4000244140625 2038.5 L 695.4000244140625 2011.4000244140625 L 754.4000244140625 1984.300048828125 L 813.2999877929688 2011.4000244140625 Z" fill="#362A0D" transform="matrix(1, 0, 0, 1, -154.99999769032001, -1809.999973028906)"/><path d="M 754.4000244140625 2321.89990234375 L 695.4000244140625 2294.800048828125 L 754.4000244140625 2267.699951171875 L 813.2999877929688 2294.800048828125 Z" fill="#362A0D" transform="matrix(1, 0, 0, 1, -154.99999769032001, -1809.999973028906)"/><path d="M 754.4000244140625 2464.199951171875 L 695.4000244140625 2437.10009765625 L 754.4000244140625 2410 L 813.2999877929688 2437.10009765625 Z" fill="#362A0D" transform="matrix(1, 0, 0, 1, -154.99999769032001, -1809.999973028906)"/><path d="M 754.4000244140625 2606.60009765625 L 695.4000244140625 2579.39990234375 L 754.4000244140625 2552.300048828125 L 813.2999877929688 2579.39990234375 Z" fill="#362A0D" transform="matrix(1, 0, 0, 1, -154.99999769032001, -1809.999973028906)"/><path opacity="0.18" fill="#FFFFFF" d="M666,1960.8c0,29,4.6,56.5,12.3,84c7.4-15.6-2.1-67.9,20.7-74.2c15-4.1,28.8,18.2,34.3-9.5&#10;&#9;&#9;&#9;C711.1,1959.6,689.4,1962.4,666,1960.8z" transform="matrix(1, 0, 0, 1, -154.99999769032001, -1809.999973028906)"/><path fill="#030301" d="M636.9,2539.5c-0.4,11.2-0.8,22.8-2.4,34.5c-0.3,2.2-1.9,4-4.1,4.5c-9.3,2.2-17.9-0.2-26.2-2.5&#10;&#9;&#9;&#9;&#9;c-4.2-1.2-8.2-2.3-12.1-2.7c-3,14.1-12,20.1-23,27.6l-2.2,1.5c-1.2,0.8-2.7,1.1-4.2,0.8c-1.4-0.3-2.7-1.2-3.5-2.5&#10;&#9;&#9;&#9;&#9;c-6.9-11.5-7.5-29-8-43.2c-0.1-1.5-0.1-3-0.2-4.4c-0.7-17.3-2.8-34.6-4.8-51.4c-1.5-12.2-3-24.8-4-37.4&#10;&#9;&#9;&#9;&#9;c-1.9-24.5-0.7-49.9,0.5-74.5c0.5-9.5,0.9-19.3,1.2-28.8c0.8-25.9,0-50.8-0.9-77.1c-0.2-7.9-0.5-16.1-0.7-24.2&#10;&#9;&#9;&#9;&#9;c-0.1-1.9-0.1-4-0.2-6.1c-0.4-8.5-0.8-18.7,1.3-27.9c-2.1,6.8-3.9,13.9-5.7,21.3c-1.9,8-3.9,16.2-6.5,24.1v353h115.9v-149&#10;&#9;&#9;&#9;&#9;c-1.4,3.8-2.7,7.7-3.8,11.5C638.1,2504.2,637.5,2521.3,636.9,2539.5z" transform="matrix(1, 0, 0, 1, -154.99999769032001, -1809.999973028906)"/><path fill="#030301" d="M546.4,2217.2c0.2-0.4,0.4-0.8,0.6-1.2c0,0-0.1,0-0.1,0C546.7,2216.4,546.5,2216.8,546.4,2217.2z" transform="matrix(1, 0, 0, 1, -154.99999769032001, -1809.999973028906)"/></svg>